<?xml version="1.0" encoding="UTF-8"?>
<!-- Created with Inkscape (http://www.inkscape.org/) -->
<svg width="37.635mm" height="46.887mm" version="1.1" viewBox="0 0 37.635 46.887" xmlns="http://www.w3.org/2000/svg">
 <g transform="translate(-30.651 -24.272)">
  <g transform="matrix(.49049 0 0 .48271 -2.9558 -34.272)" fill="#fff">
   <path d="m98.592 121.29-0.01707 6e-3c-0.17948 3e-3 -0.35932 9e-3 -0.53855 0.0223-0.21717 0.0173-0.43208 0.0408-0.64756 0.0752-0.21521 0.0343-0.43076 0.0796-0.64328 0.13103-0.21257 0.0515-0.42389 0.11019-0.6326 0.17842-0.20809 0.0681-0.41442 0.1441-0.61763 0.22859-0.20384 0.0848-0.40488 0.17777-0.60267 0.27877-0.19784 0.10077-0.39265 0.20962-0.58344 0.32618-0.19066 0.11675-0.37731 0.24157-0.55993 0.37356-0.18269 0.13174-0.36068 0.27174-0.53429 0.41817-0.17363 0.14665-0.3429 0.29917-0.5065 0.45998-0.16354 0.16079-0.32196 0.33044-0.47445 0.50459-0.15248 0.17401-0.29975 0.35427-0.44025 0.54082-0.14043 0.1866-0.27417 0.37875-0.40179 0.57707-0.12788 0.19859-0.24921 0.40126-0.36331 0.61054-0.11402 0.20905-0.22111 0.42256-0.32057 0.64117v3e-3c-0.09137 0.20135-0.17364 0.40739-0.25218 0.61611-0.03359-0.0147-0.06675-0.0304-0.10045-0.0445h-0.0022c-0.06916-0.0291-0.13782-0.0565-0.2073-0.0836-0.06926-0.0271-0.13726-0.0527-0.2073-0.0781-0.07025-0.0255-0.13867-0.0517-0.20944-0.0752h-0.0044c-0.07047-0.0233-0.14029-0.0454-0.21158-0.0669-0.07112-0.0216-0.14244-0.0418-0.21371-0.0614-0.07145-0.0196-0.14173-0.0381-0.21371-0.0558-0.07145-0.0175-0.14413-0.0345-0.21586-0.0502h-0.0022c-0.07145-0.0156-0.14404-0.0308-0.21585-0.0445-0.07277-0.0143-0.14481-0.0271-0.21799-0.039h-0.0022c-0.07255-0.0114-0.14458-0.0208-0.21799-0.0307-0.07277-0.01-0.14655-0.02-0.22012-0.0278-0.07298-9e-3 -0.14621-0.0143-0.22012-0.0196h-0.0022c-0.0732-6e-3 -0.14467-0.0128-0.21799-0.0167-0.0732-4e-3 -0.14681-6e-3 -0.22012-9e-3 -0.07309-1e-3 -0.14701-3e-3 -0.22012-3e-3h-0.0022c-0.21725 0-0.43488 9e-3 -0.65183 0.0251-0.21717 0.0173-0.43207 0.0437-0.64756 0.0781-0.21526 0.0344-0.43083 0.0769-0.64328 0.12818-0.21256 0.0515-0.42383 0.1129-0.6326 0.1812-0.20878 0.0682-0.41378 0.14385-0.61764 0.22859-0.20382 0.0845-0.40489 0.17806-0.60268 0.27879-0.19784 0.10105-0.39264 0.20932-0.58344 0.32616-0.19068 0.11676-0.37732 0.24159-0.55993 0.37356-0.18264 0.13175-0.36065 0.26894-0.53429 0.41539v3e-3c-0.17365 0.14666-0.34291 0.2992-0.5065 0.45998-0.16352 0.16077-0.32195 0.32765-0.47445 0.50181-0.15246 0.17399-0.29974 0.35427-0.44025 0.54082-0.14042 0.1866-0.27417 0.38153-0.40178 0.57986-0.12747 0.19803-0.24952 0.40181-0.36332 0.61053-0.114 0.20903-0.2211 0.42254-0.32057 0.64118v3e-3c-0.09928 0.21876-0.19168 0.44189-0.27569 0.66907-0.08385 0.22629-0.16064 0.45803-0.22868 0.69138-0.06825 0.23426-0.1278 0.47096-0.17952 0.71088-0.0517 0.24013-0.09565 0.48326-0.13037 0.72761-0.03472 0.24417-0.05949 0.48929-0.07693 0.73598-0.01758 0.24671-0.02766 0.49387-0.02778 0.74154v3e-3c1.24e-4 0.24766 0.01018 0.4949 0.02778 0.74155 0.01744 0.24576 0.04235 0.4927 0.07693 0.73596 0.03472 0.24429 0.07865 0.48463 0.13037 0.72484 0.05173 0.23995 0.11129 0.47944 0.17952 0.71367 0.05936 0.20364 0.12446 0.396 0.19021 0.57986l0.33981 0.95062 0.76724-0.30943c0.10933-0.0441 0.22011-0.0855 0.33126-0.12261 0.11221-0.0375 0.22587-0.0724 0.34194-0.1032 0.11578-0.0307 0.23362-0.0577 0.35049-0.0808 0.11841-0.0234 0.23658-0.043 0.35477-0.0585 0.11817-0.0155 0.23897-0.0283 0.36118-0.0362 0.12271-9e-3 0.2441-0.0114 0.36545-0.0114h36.5l0.26288-0.63004c0.048-0.11619 0.0934-0.23444 0.13677-0.35126 0.0836-0.22623 0.16065-0.45753 0.22867-0.69137v-3e-3c0.0678-0.23293 0.12815-0.47005 0.17952-0.70809v-3e-3c0.0516-0.23906 0.0955-0.48102 0.13037-0.72482 0.0348-0.24454 0.0616-0.49247 0.0791-0.73877 0.0174-0.24684 0.0256-0.49449 0.0256-0.74155v-3e-3c-1.2e-4 -0.0845-1e-3 -0.17053-4e-3 -0.25926-2e-3 -0.0714-4e-3 -0.14972-9e-3 -0.23697-4e-3 -0.0874-0.0109-0.17369-0.0171-0.25926v-3e-3c-5e-3 -0.0719-0.011-0.152-0.0193-0.23697v-9e-3c-8e-3 -0.0839-0.0184-0.16616-0.0278-0.24532v-6e-3c-0.01-0.0764-0.0206-0.15662-0.0321-0.23696v-9e-3c-0.0121-0.0862-0.0255-0.16818-0.0385-0.24532v-3e-3c-0.0143-0.0842-0.0294-0.166-0.0449-0.24533l-2e-3 -3e-3c-0.016-0.0814-0.0316-0.16037-0.0491-0.23975v-3e-3c-0.0174-0.0795-0.036-0.15932-0.0556-0.23975-0.0194-0.0798-0.0404-0.15905-0.0619-0.23974v-3e-3c-0.0212-0.0785-0.0449-0.15781-0.0684-0.23697v-3e-3c-0.0231-0.0779-0.0474-0.15571-0.0727-0.23417v-3e-3c-0.0256-0.0792-0.0521-0.15702-0.0791-0.23417-0.0271-0.0772-0.056-0.15375-0.0855-0.23139-0.0289-0.0765-0.057-0.15309-0.0876-0.2286-0.0294-0.0725-0.062-0.1463-0.094-0.22024l-2e-3 -6e-3c-0.0321-0.0742-0.065-0.148-0.0983-0.22022-0.0346-0.0751-0.0695-0.14856-0.10472-0.22024v-3e-3h-2e-3c-0.0354-0.0715-0.0718-0.14409-0.10898-0.21466l-2e-3 -3e-3c-0.037-0.0708-0.0746-0.13945-0.11326-0.20909v-3e-3l-2e-3 -3e-3c-0.0378-0.0677-0.0756-0.13332-0.11541-0.20071l-4e-3 -6e-3c-0.0395-0.0677-0.0791-0.13503-0.11968-0.20073l-4e-3 -6e-3c-0.0419-0.0669-0.0845-0.13431-0.12823-0.20071v-3e-3c-0.0433-0.0658-0.0873-0.13003-0.13251-0.19514-0.0451-0.0652-0.0916-0.13032-0.13891-0.19515-0.0472-0.0645-0.0933-0.12761-0.14105-0.18957h-2e-3v-3e-3c-0.0476-0.0615-0.096-0.12061-0.14532-0.1812l-2e-3 -3e-3c-0.0495-0.0611-0.0997-0.11975-0.1496-0.17841-0.0511-0.0599-0.1022-0.12076-0.15388-0.17842v3e-3c-0.0523-0.0585-0.1045-0.11875-0.15815-0.17563v3e-3c-0.0538-0.0571-0.10734-0.11447-0.16242-0.17005h-2e-3c-0.0547-0.0549-0.10833-0.11062-0.16456-0.16449h-2e-3c-0.0551-0.0525-0.11112-0.10591-0.1667-0.15611l-4e-3 -3e-3c-0.0557-0.0508-0.11162-0.10092-0.16884-0.15054h-2e-3v-3e-3c-0.0578-0.0498-0.1155-0.0988-0.17525-0.14776-0.0596-0.0488-0.12132-0.0952-0.18165-0.14216-0.0603-0.047-0.11997-0.0939-0.18166-0.13945h-2e-3v-3e-3c-0.0603-0.0441-0.12196-0.0852-0.1838-0.12817l-2e-3 -3e-3c-0.0619-0.0433-0.1235-0.0869-0.18594-0.12817v3e-3c-0.0635-0.0422-0.12612-0.0852-0.1902-0.12546h-2e-3c-0.0642-0.0401-0.12916-0.0787-0.19448-0.11704l-2e-3 -3e-3c-0.0643-0.0377-0.12933-0.0728-0.19448-0.10876l-2e-3 -3e-3c-0.0651-0.036-0.13065-0.0717-0.19662-0.1059v3e-3c-0.0667-0.0348-0.13334-0.0702-0.20089-0.1032h-2e-3c-0.0677-0.033-0.13489-0.0638-0.20303-0.0948-0.0684-0.0311-0.13652-0.063-0.20516-0.0919-0.0686-0.029-0.13784-0.0564-0.20731-0.0837h-2e-3c-0.0683-0.0267-0.1363-0.0532-0.20517-0.0781h-4e-3c-0.0689-0.0251-0.13795-0.0521-0.2073-0.0752h-2e-3c-0.0705-0.0234-0.14267-0.0454-0.21373-0.0669-0.0705-0.0213-0.14075-0.042-0.21156-0.0614h-2e-3c-0.0708-0.0196-0.14027-0.038-0.21158-0.0558h-2e-3c-0.0718-0.0177-0.14348-0.0344-0.21586-0.0502h-4e-3c-0.0712-0.0153-0.14166-0.0311-0.21371-0.0445h-2e-3c-0.072-0.0143-0.14341-0.0271-0.21585-0.039h-2e-3c-0.0725-0.0114-0.14455-0.0208-0.21799-0.0307-0.0721-0.01-0.14512-0.02-0.21798-0.0278h-2e-3c-0.0723-7e-3 -0.14699-0.0143-0.22012-0.0196-0.0731-6e-3 -0.14696-0.0128-0.22012-0.0167-0.0733-4e-3 -0.14682-6e-3 -0.22013-9e-3 -0.0731-1e-3 -0.147-3e-3 -0.22012-3e-3h-2e-3c-0.21723 3e-5 -0.43488 7e-3 -0.65183 0.0251-0.21696 0.0173-0.43227 0.0437-0.64756 0.0781-0.21543 0.0343-0.43052 0.0768-0.64328 0.12818-0.21254 0.0515-0.42382 0.1129-0.63259 0.18121-0.20809 0.0681-0.41442 0.14412-0.61764 0.22859-0.2038 0.0845-0.40486 0.17805-0.60268 0.27879-0.06 0.0307-0.118 0.0655-0.17738 0.0976-0.0191-0.0431-0.0381-0.0859-0.0577-0.12818h-2e-3v-3e-3c-0.0338-0.0727-0.0671-0.14291-0.10253-0.21466l-2e-3 -3e-3c-0.0352-0.0718-0.072-0.14375-0.10898-0.21466v-3e-3h-2e-3c-0.0378-0.0718-0.0745-0.14216-0.11328-0.21187-0.0392-0.0705-0.0793-0.14045-0.11967-0.20909v-3e-3c-0.0398-0.0675-0.0821-0.13345-0.12395-0.20071l-2e-3 -3e-3c-0.0414-0.0668-0.0824-0.13389-0.12609-0.20073h-2e-3v-3e-3c-0.0437-0.0664-0.089-0.13203-0.13464-0.19793-0.0457-0.0658-0.0907-0.12946-0.13678-0.19235-0.0468-0.0641-0.0947-0.1266-0.14319-0.18958-0.0483-0.0627-0.0964-0.12646-0.14532-0.18678h-2e-3c-0.0488-0.0602-0.0987-0.12146-0.1496-0.1812-0.0506-0.0592-0.101-0.11961-0.15388-0.17842-0.0525-0.0585-0.10702-0.11647-0.16028-0.17283-0.0526-0.0555-0.10636-0.11034-0.1603-0.16449l-4e-3 -3e-3c-0.0534-0.054-0.10735-0.10877-0.16243-0.16169l-2e-3 -3e-3c-0.055-0.0525-0.111-0.10277-0.1667-0.15332l-4e-3 -3e-3c-0.0559-0.051-0.11189-0.10391-0.16884-0.15332h-2e-3l-2e-3 -3e-3c-0.0571-0.0491-0.11444-0.0969-0.17311-0.14496l-2e-3 -3e-3c-0.0587-0.0481-0.11765-0.0956-0.17738-0.14217h-4e-3c-0.0593-0.0458-0.11861-0.0919-0.17951-0.13659l-2e-3 -3e-3c-0.0611-0.045-0.12229-0.0881-0.1838-0.13103-0.0627-0.044-0.12476-0.0863-0.18807-0.12817h-2e-3v-3e-3c-0.0627-0.0413-0.1267-0.0804-0.19021-0.1199l-2e-3 -3e-3c-0.0635-0.0395-0.12811-0.0794-0.19234-0.11704v3e-3c-0.0652-0.0384-0.13061-0.0776-0.19662-0.11433h-2e-3c-0.0653-0.0361-0.13041-0.0715-0.19662-0.10591h-2e-3c-0.0662-0.0347-0.13224-0.0678-0.19875-0.10034l-2e-3 -3e-3h-2e-3c-0.0661-0.032-0.13194-0.0618-0.19876-0.0921l-4e-3 -3e-3c-0.067-0.0307-0.13376-0.0605-0.20089-0.0892h-2e-3l-2e-3 -3e-3c-0.0692-0.0291-0.13782-0.0565-0.2073-0.0836-0.0682-0.0267-0.13632-0.0532-0.20516-0.0781h-4e-3c-0.0689-0.0251-0.13842-0.0494-0.2073-0.0725h-2e-3l-2e-3 -3e-3c-0.0705-0.0233-0.14029-0.0454-0.21158-0.0669-0.0711-0.0216-0.14243-0.0418-0.21371-0.0614-0.0716-0.0196-0.14367-0.0381-0.21586-0.0558-0.0711-0.0174-0.14202-0.0345-0.21371-0.0502h-2e-3c-0.0714-0.0156-0.14408-0.0281-0.21586-0.0418-0.0728-0.0143-0.14483-0.0271-0.21799-0.039h-2e-3c-0.07255-0.0114-0.14458-0.0237-0.21799-0.0334-0.07277-0.01-0.14656-0.02-0.22012-0.0278-0.07299-7e-3 -0.14621-0.0143-0.22012-0.0196h-0.0022c-0.07331-6e-3 -0.14468-0.01-0.21799-0.0143-0.07331-4e-3 -0.14681-9e-3 -0.22012-0.0114-0.07309-1e-3 -0.14701-3e-3 -0.22014-3e-3h-0.0022zm0.09618 2.4058c0.06106 1.2e-4 0.1206 1e-3 0.18166 3e-3 0.06128 1e-3 0.1246 6e-3 0.18593 9e-3 0.06139 3e-3 0.12267 6e-3 0.1838 0.0114 0.05974 4e-3 0.11908 0.01 0.17952 0.0167 0.06051 7e-3 0.12076 0.0143 0.18165 0.0223h0.0022c0.05953 9e-3 0.11948 0.0183 0.17952 0.0278 0.06018 0.01 0.11941 0.0191 0.17952 0.0307 0.05974 0.0114 0.12013 0.0233 0.17953 0.0363 0.0595 0.0128 0.12002 0.0273 0.17952 0.0418 0.0594 0.0146 0.11804 0.0313 0.17738 0.0474 0.0589 0.0161 0.11725 0.0327 0.17524 0.0503h2e-3c0.0584 0.0175 0.11686 0.0365 0.17524 0.0558 0.0566 0.019 0.11344 0.0382 0.16884 0.0585h2e-3c0.0575 0.0207 0.11615 0.0447 0.17312 0.0669 0.0557 0.0217 0.10977 0.0438 0.16456 0.0669 0.0563 0.0241 0.11364 0.0471 0.16882 0.0725l2e-3 3e-3h2e-3c0.0556 0.0251 0.11172 0.0515 0.1667 0.0781 0.0535 0.0263 0.10581 0.0535 0.15814 0.0808h2e-3c0.0536 0.0278 0.10735 0.0572 0.16029 0.0864 0.0535 0.0297 0.10745 0.0609 0.16029 0.0921 0.0526 0.031 0.10428 0.0625 0.156 0.0948h2e-3c0.0519 0.0323 0.10297 0.0668 0.15387 0.10034 0.0502 0.0333 0.10067 0.0661 0.1496 0.10035 0.0502 0.0351 0.10089 0.0728 0.1496 0.10876h2e-3c0.0489 0.0358 0.0989 0.0739 0.14747 0.11148 0.0465 0.0364 0.0933 0.0739 0.13891 0.11147h2e-3c0.0471 0.0384 0.0944 0.0798 0.14104 0.1199 0.0448 0.0388 0.0888 0.0772 0.13251 0.11704l2e-3 3e-3c0.0452 0.041 0.0911 0.0839 0.13465 0.12546 0.0428 0.0411 0.0838 0.0828 0.12608 0.12546h2e-3l2e-3 3e-3c0.0426 0.0427 0.0847 0.0872 0.12609 0.13103v-3e-3c0.0421 0.0445 0.0835 0.0916 0.12395 0.1366 0.0394 0.0438 0.0785 0.0908 0.11754 0.1366v-3e-3c0.039 0.0458 0.0789 0.0945 0.11755 0.14216 0.0383 0.0473 0.0748 0.0949 0.11113 0.14217 0.0369 0.048 0.0752 0.0958 0.11113 0.14496 0.0362 0.0495 0.0708 0.0989 0.10472 0.14776 0.0341 0.0491 0.0671 0.0998 0.10045 0.15054 0.0322 0.0492 0.0645 0.0993 0.0962 0.15054h2e-3v3e-3c0.0316 0.0507 0.0631 0.10091 0.094 0.15332h-2e-3c0.0308 0.0524 0.0607 0.10377 0.0897 0.15612h2e-3v3e-3c0.0297 0.0534 0.0576 0.10591 0.0855 0.15889 0.0267 0.0514 0.0535 0.10391 0.0791 0.15612l2e-3 3e-3c0.0266 0.0537 0.0516 0.10733 0.0769 0.16169 0.0252 0.0544 0.0495 0.10805 0.0727 0.16169v3e-3c0.0233 0.0538 0.0475 0.10777 0.0705 0.16447 0.0225 0.0555 0.0451 0.11134 0.0663 0.16727 0.0207 0.0551 0.0409 0.11034 0.0599 0.16449v3e-3c0.0198 0.0565 0.0397 0.11447 0.0577 0.17005 8e-3 0.0253 0.0148 0.052 0.0235 0.0808l0.38255 1.2628 0.9147-0.64397c0.11962-0.0842 0.24075-0.16586 0.36545-0.24253 0.15385-0.0942 0.3116-0.18273 0.47231-0.26485 0.16066-0.0818 0.32501-0.15671 0.49154-0.2258 0.16655-0.0692 0.33504-0.1336 0.50651-0.18957 0.17069-0.0558 0.34473-0.10534 0.51932-0.14776 0.17529-0.0424 0.35404-0.0775 0.53216-0.10591 0.17798-0.0284 0.35679-0.0498 0.53642-0.0641 0.17929-0.0143 0.35843-0.0196 0.53856-0.0196h2e-3c0.0604 1.4e-4 0.1213 1e-3 0.18165 3e-3 0.0613 1e-3 0.12246 3e-3 0.1838 6e-3 0.0604 3e-3 0.12127 9e-3 0.18166 0.0143 0.0605 6e-3 0.1205 0.01 0.18165 0.0167 0.0604 7e-3 0.12075 0.0143 0.18166 0.0223h2e-3c0.0595 9e-3 0.11948 0.0154 0.17952 0.0251 0.0602 0.01 0.11941 0.022 0.17952 0.0334h4e-3c0.0592 0.0114 0.11807 0.0236 0.17739 0.0362 0.0595 0.0128 0.11788 0.0273 0.17738 0.0418l-2e-3 -3e-3c0.0592 0.0147 0.11839 0.031 0.17739 0.0474h2e-3c0.059 0.0161 0.11902 0.0354 0.17739 0.053 0.0577 0.0174 0.11364 0.034 0.17097 0.053 0.058 0.0194 0.11572 0.0404 0.17311 0.0614h4e-3c0.0573 0.0207 0.11403 0.0418 0.17097 0.0641 0.0567 0.0223 0.11248 0.0458 0.16883 0.0697 0.0565 0.0238 0.11144 0.0474 0.16671 0.0725 0.0551 0.0251 0.11036 0.0517 0.16456 0.0781 0.0549 0.0268 0.11027 0.0554 0.16455 0.0836h2e-3c0.0542 0.0281 0.1068 0.0568 0.1603 0.0863h2e-3c0.0535 0.0294 0.10538 0.0612 0.15815 0.0921v-3e-3c0.0518 0.0304 0.10264 0.0628 0.15388 0.0948 0.0518 0.0325 0.10341 0.0639 0.15387 0.0976v3e-3c0.0511 0.0338 0.10198 0.0684 0.15174 0.1032h2e-3c0.0498 0.0345 0.0999 0.0724 0.14961 0.10876 0.0481 0.0355 0.0977 0.0717 0.14532 0.10877 0.0485 0.0377 0.096 0.0757 0.14319 0.11433 0.0465 0.0381 0.0925 0.0769 0.13891 0.11704 0.045 0.0391 0.0902 0.0794 0.13464 0.1199l2e-3 3e-3h2e-3c0.0456 0.0412 0.0909 0.0839 0.13464 0.12546 0.0425 0.0405 0.0844 0.0835 0.12609 0.12547 0.0427 0.043 0.0847 0.0871 0.1261 0.13103 0.0416 0.0441 0.0837 0.0888 0.12395 0.13374 0.0406 0.0454 0.0808 0.0911 0.11969 0.1366 0.0396 0.0465 0.078 0.0931 0.1154 0.13945l2e-3 3e-3h2e-3c0.038 0.0465 0.0763 0.0943 0.11328 0.14217 0.0365 0.0475 0.0702 0.0949 0.10471 0.14216h2e-3c0.0352 0.0481 0.0701 0.0978 0.10472 0.14776v3e-3c0.0343 0.0494 0.0671 0.0998 0.10045 0.15054h2e-3c0.033 0.0501 0.0661 0.10177 0.0983 0.15333 0.0306 0.0497 0.0607 0.0981 0.0897 0.14774v3e-3l2e-3 6e-3c0.0304 0.0515 0.0601 0.10291 0.0897 0.15612 0.0287 0.0517 0.056 0.10106 0.0834 0.15333l2e-3 3e-3v3e-3c0.0279 0.053 0.0568 0.10534 0.0834 0.15891 0.0264 0.0537 0.0508 0.10677 0.0748 0.15891 0.0252 0.0545 0.0493 0.10762 0.0727 0.16169v3e-3h2e-3c0.0233 0.0538 0.0454 0.11062 0.0684 0.16727 0.0225 0.0555 0.0451 0.11133 0.0663 0.16726 0.0209 0.055 0.0421 0.11062 0.0619 0.16727h-2e-3c0.0198 0.0565 0.0397 0.11162 0.0577 0.16727 0.0181 0.0559 0.0343 0.11247 0.0513 0.17005l2e-3 3e-3c0.0167 0.0562 0.0313 0.11204 0.047 0.17005 0.0149 0.0557 0.0288 0.11262 0.0428 0.17005h2e-3c0.0139 0.057 0.0256 0.11419 0.0385 0.17284l2e-3 3e-3v3e-3c0.0129 0.0585 0.0251 0.11547 0.0363 0.17285l-2e-3 -3e-3c0.0117 0.0605 0.0225 0.11947 0.0321 0.17562 0.01 0.0595 0.0207 0.11361 0.0278 0.16448v9e-3c9e-3 0.0581 0.0158 0.11832 0.0235 0.1812 7e-3 0.0575 0.0121 0.11119 0.0171 0.16449l2e-3 3e-3v6e-3c5e-3 0.0535 0.01 0.11333 0.015 0.1812 4e-3 0.0559 8e-3 0.11276 0.0109 0.16727 2e-3 0.0552 4e-3 0.11833 7e-3 0.18957 2e-3 0.0538 2e-3 0.10905 2e-3 0.16727-6e-5 0.17335-7e-3 0.3461-0.0193 0.51852-0.0124 0.17377-0.0289 0.3465-0.0534 0.51853-0.0246 0.17215-0.057 0.3419-0.094 0.51294v3e-3c-0.0369 0.17085-0.0793 0.33949-0.12823 0.50737-0.0119 0.0413-0.0279 0.0817-0.0406 0.12261h-35.36c-0.15537 0-0.30901 7e-3 -0.45949 0.0167-0.15098 0.01-0.30193 0.0247-0.45308 0.0445-0.15113 0.0198-0.29995 0.0434-0.44666 0.0725-0.14825 0.0294-0.29544 0.0647-0.44025 0.10319-0.0015 4e-4 -0.0027 3e-3 -0.0043 3e-3 -4.27e-4 -1e-3 -0.0018-3e-3 -0.0022-6e-3 -0.03677-0.17077-0.06737-0.34319-0.09189-0.51574-0.02451-0.17238-0.04331-0.34514-0.05556-0.51853-0.01235-0.17352-0.01915-0.3476-0.01924-0.52131 1.47e-4 -0.17276 0.0069-0.346 0.01924-0.51852v-3e-3c0.01226-0.17339 0.03105-0.34614 0.05556-0.51852 0.02438-0.17158 0.05537-0.34298 0.09189-0.51296v-3e-3c0.03668-0.16982 0.07948-0.34003 0.12823-0.50737 0.0491-0.1684 0.10332-0.33392 0.16456-0.49902v-3e-3c0.061-0.16497 0.13003-0.32702 0.20303-0.48785h-0.0022c0.07317-0.16084 0.1523-0.31822 0.23722-0.47394 0.08503-0.15595 0.17702-0.31007 0.27356-0.45997 0.09632-0.14972 0.19818-0.29494 0.30561-0.43768 0.1075-0.14274 0.2196-0.28063 0.33767-0.41539v-3e-3c0.1181-0.13489 0.2416-0.26432 0.36973-0.3903 0.1277-0.12546 0.2605-0.24661 0.39751-0.3624 0.13748-0.1159 0.27918-0.22639 0.42529-0.33174h0.0022c0.14599-0.10548 0.29505-0.20698 0.4488-0.30109 0.15382-0.0942 0.3116-0.18273 0.47231-0.26484 0.16068-0.0818 0.32503-0.15671 0.49154-0.22581 0.16657-0.0692 0.33504-0.13074 0.5065-0.18678 0.17137-0.0561 0.34617-0.10805 0.52146-0.15054l-0.0022 3e-3c0.17519-0.0422 0.3521-0.0804 0.53001-0.10876 0.17815-0.0284 0.35876-0.0498 0.53856-0.0641 0.17931-0.0143 0.35844-0.0196 0.53856-0.0196 0.06106 1.3e-4 0.1206 1e-3 0.18166 3e-3h0.0022c0.06128 1e-3 0.12247 3e-3 0.1838 6e-3 0.06062 3e-3 0.12123 0.01 0.18166 0.0143 0.0604 4e-3 0.12052 0.01 0.18165 0.0167 0.0604 7e-3 0.12075 0.0143 0.18166 0.0223h0.0022c0.06029 9e-3 0.1209 0.0181 0.18166 0.0278l-0.0022-3e-3c0.06018 0.01 0.1194 0.022 0.17952 0.0334 0.05974 0.0114 0.12012 0.0233 0.17953 0.0363h0.0022c0.05985 0.0128 0.11804 0.0273 0.17738 0.0418 0.0592 0.0146 0.11838 0.0284 0.17738 0.0445 0.05887 0.0161 0.11726 0.0354 0.17525 0.053h0.0022c0.05843 0.0176 0.11686 0.0365 0.17524 0.0558 0.05646 0.0188 0.11296 0.0383 0.16884 0.0585h0.0022c0.05723 0.0207 0.1142 0.0418 0.17097 0.0641h0.0022c0.05701 0.0223 0.11278 0.0461 0.16883 0.0697 0.05624 0.0238 0.11135 0.0472 0.1667 0.0725 0.05515 0.0251 0.11036 0.0517 0.16456 0.0781 0.05504 0.0268 0.11042 0.0554 0.16456 0.0836 0.05416 0.0281 0.10723 0.0571 0.16028 0.0865h0.0044c0.04815 0.0266 0.09487 0.0555 0.14319 0.0836l0.94462 0.5464 0.30988-1.2824c0.0256-0.10577 0.05318-0.21323 0.08338-0.31782v6e-3c0.04902-0.16828 0.10329-0.33651 0.16456-0.50179h0.0022c0.06062-0.16379 0.12628-0.32795 0.19875-0.48787l0.0022-3e-3c0.07277-0.15974 0.15075-0.31929 0.23509-0.47392 0.08502-0.156 0.17702-0.30731 0.27356-0.4572v-3e-3c0.09629-0.14972 0.19817-0.29493 0.3056-0.43768 0.10745-0.14274 0.21962-0.28066 0.33768-0.41539 0.11811-0.13488 0.2416-0.26711 0.36973-0.39307 0.12766-0.12547 0.26049-0.24662 0.39751-0.36242 0.13749-0.1159 0.28138-0.22643 0.42742-0.33174 0.14598-0.10548 0.29505-0.20697 0.4488-0.30109 0.15387-0.0941 0.31161-0.18016 0.47231-0.26204 0.16065-0.0821 0.32502-0.15929 0.49155-0.22861 0.16654-0.0692 0.33503-0.13074 0.5065-0.18678 0.17145-0.0561 0.34621-0.10534 0.52146-0.14774 0.17514-0.0423 0.34994-0.0775 0.52788-0.10591h0.0022c0.17815-0.0284 0.35662-0.0498 0.53642-0.0641 0.17932-0.0143 0.35844-0.0223 0.53856-0.0223z" color="#000000" opacity=".41769" style="-inkscape-stroke:none"/>
   <path d="m119.54 134.61c-0.69227-0.0144-1.2774 0.36326-1.6562 1.2702-2.4244 5.8042-33.747 10.265-40.502 0-2.6603-4.0419-8.7344 3.8955-8.7344 8.7344v64.935c0 4.8388 3.8955 8.7344 8.7344 8.7344h40.502c4.8388 0 8.7344-3.8955 8.7344-8.7344v-64.935c0-3.856-4.3623-9.9481-7.0781-10.005zm-3.4251 7.5913c0.0883-6e-3 0.17872-4e-3 0.2713 6e-3 0.0926 0.01 0.18692 0.0268 0.28319 0.0512 0.0963 0.0244 0.19418 0.0557 0.29352 0.0941 0.0993 0.0384 0.20052 0.0834 0.30231 0.13488 0.10179 0.0515 0.20436 0.10934 0.30799 0.17311 0.10363 0.0638 0.2083 0.13356 0.31315 0.20877 0.10486 0.0752 0.20977 0.15603 0.31523 0.24185 0.10546 0.0858 0.21133 0.17675 0.31678 0.27233 0.10545 0.0956 0.21091 0.19574 0.31574 0.30025 0.10483 0.1045 0.20906 0.21349 0.31265 0.32607 0.10358 0.11258 0.20625 0.229 0.30799 0.34882 0.10173 0.11982 0.20252 0.24275 0.30179 0.36897 0.0993 0.12622 0.19683 0.2558 0.293 0.38757 0.0962 0.13178 0.19072 0.26607 0.28319 0.40256 0.0925 0.13649 0.18315 0.27512 0.2713 0.41548 0.0881 0.14036 0.17413 0.28242 0.25735 0.42581 0.0832 0.1434 0.16366 0.28798 0.24133 0.43357 0.0777 0.14559 0.15226 0.29231 0.22376 0.43925s0.13992 0.29438 0.20464 0.44183c0.0647 0.14745 0.12561 0.29472 0.18293 0.44184 0.0573 0.14711 0.11089 0.29382 0.1602 0.43976 0.0493 0.14595 0.0947 0.29119 0.13539 0.43512 0.0407 0.14393 0.0766 0.2868 0.108 0.42788s0.058 0.28016 0.0796 0.41754c0.0216 0.13739 0.0385 0.27282 0.0496 0.40566 0.0111 0.13285 0.0165 0.26321 0.0165 0.39068v54.738c0 0.12747-3e-3 0.25398-0.01 0.37982-6e-3 0.12584-0.0158 0.25111-0.0284 0.37517s-0.0283 0.24685-0.047 0.36897c-0.0187 0.12213-0.0405 0.24324-0.0651 0.36328-0.0246 0.12005-0.0523 0.23929-0.0827 0.35709-0.0304 0.11781-0.0637 0.23443-0.0997 0.34985s-0.0748 0.22974-0.11627 0.34261c-0.0415 0.11288-0.0855 0.22417-0.13229 0.33435-0.0468 0.11018-0.0963 0.21926-0.14831 0.3266-0.052 0.10734-0.1063 0.21295-0.1633 0.31729s-0.11694 0.20731-0.1788 0.30851c-0.0619 0.10119-0.12567 0.20079-0.19224 0.29869-0.0666 0.0979-0.13559 0.19391-0.2067 0.28835-0.0711 0.0944-0.14463 0.18718-0.22014 0.27802-0.0755 0.0908-0.15279 0.18008-0.23255 0.26717-0.0798 0.0871-0.16161 0.1721-0.24546 0.25528-0.0838 0.0832-0.17008 0.16428-0.25787 0.24339-0.0878 0.0791-0.17714 0.15609-0.26871 0.231-0.0916 0.0749-0.1854 0.14805-0.2806 0.21859-0.0952 0.0705-0.19226 0.13861-0.29094 0.20464-0.0987 0.066-0.19875 0.12984-0.30076 0.1912-0.10201 0.0614-0.20591 0.12019-0.31109 0.17674-0.10519 0.0565-0.21168 0.11069-0.31988 0.16226-0.10821 0.0516-0.21811 0.10083-0.32918 0.14728-0.11107 0.0464-0.22314 0.0901-0.33693 0.13126-0.11378 0.0412-0.22885 0.0795-0.3452 0.11523-0.11634 0.0358-0.23419 0.0691-0.35295 0.0992-0.11875 0.0302-0.23866 0.0572-0.35967 0.0816s-0.24327 0.046-0.36638 0.0646-0.24701 0.0345-0.37207 0.047-0.2509 0.0216-0.37776 0.0279c-0.12685 6e-3 -0.25494 0.01-0.38344 0.01h-34.417c-0.1285 0-0.25607-3e-3 -0.38292-0.01-0.12685-6e-3 -0.2527-0.0154-0.37775-0.0279s-0.24948-0.0285-0.37259-0.047c-0.12311-0.0186-0.24486-0.0402-0.36587-0.0646-0.12101-0.0244-0.24091-0.0515-0.35967-0.0816-0.11875-0.0302-0.2366-0.0635-0.35295-0.0992-0.11634-0.0357-0.23141-0.0741-0.3452-0.11523-0.11379-0.0412-0.22638-0.0848-0.33745-0.13126-0.11107-0.0465-0.22046-0.0957-0.32866-0.14728-0.1082-0.0516-0.21521-0.10572-0.3204-0.16226-0.10518-0.0566-0.20857-0.11538-0.31058-0.17674-0.10201-0.0614-0.20259-0.12517-0.30127-0.1912-0.09868-0.066-0.19573-0.1341-0.29094-0.20464-0.09521-0.0705-0.18852-0.14368-0.28009-0.21859-0.09157-0.0749-0.18145-0.15188-0.26923-0.231-0.08779-0.0791-0.1735-0.16021-0.25735-0.24339-0.08385-0.0832-0.16571-0.1682-0.24546-0.25528-0.07976-0.0871-0.15755-0.17633-0.23306-0.26717-0.07551-0.0908-0.14851-0.18358-0.21962-0.27802-0.07111-0.0944-0.14014-0.19046-0.20671-0.28835-0.06656-0.0979-0.1309-0.1975-0.19275-0.29869-0.06186-0.1012-0.12129-0.20417-0.17828-0.30851-0.057-0.10434-0.11131-0.20995-0.1633-0.31729-0.05199-0.10734-0.10149-0.21642-0.14831-0.3266-0.04682-0.11018-0.0913-0.22147-0.13281-0.33435-0.04151-0.11287-0.08023-0.22719-0.11627-0.34261-0.03604-0.11542-0.06932-0.23204-0.09974-0.34985-0.03041-0.1178-0.05804-0.23704-0.08268-0.35709-0.02464-0.12004-0.04641-0.24115-0.06511-0.36328-0.01871-0.12212-0.0344-0.24491-0.04703-0.36897-0.01262-0.12406-0.02203-0.24933-0.02842-0.37517-0.0064-0.12584-0.0093-0.25235-0.0093-0.37982v-54.738c0-0.12747 0.0046-0.25746 0.01447-0.38964 0.0098-0.13218 0.02475-0.26644 0.04393-0.40256s0.04277-0.27413 0.0708-0.41341c0.02803-0.13929 0.06025-0.28001 0.09663-0.42168 0.03639-0.14167 0.07719-0.28409 0.12144-0.42737 0.04425-0.14328 0.09203-0.28738 0.14366-0.4315 0.05163-0.14411 0.10685-0.28835 0.16536-0.43253 0.05851-0.14417 0.12062-0.28804 0.18552-0.43149 0.0649-0.14346 0.1328-0.28644 0.2036-0.4284 0.0708-0.14197 0.14445-0.28302 0.22066-0.42272 0.07621-0.13969 0.15452-0.27831 0.23564-0.41496 0.08112-0.13665 0.16509-0.27127 0.25063-0.40411 0.08554-0.13283 0.17304-0.26347 0.26252-0.3917 0.08947-0.12824 0.18046-0.25438 0.27337-0.37724 0.09291-0.12287 0.18785-0.24295 0.2837-0.35967 0.09586-0.11672 0.19263-0.22972 0.29094-0.33951 0.09831-0.1098 0.1979-0.21623 0.29817-0.31833 0.10027-0.1021 0.2016-0.1999 0.30334-0.29352 0.10174-0.0936 0.20372-0.1828 0.30644-0.26717 0.10272-0.0844 0.20582-0.16388 0.30903-0.23823 0.1032-0.0743 0.20686-0.14368 0.31006-0.20722 0.1032-0.0635 0.20633-0.12167 0.30902-0.17363 0.1027-0.052 0.20474-0.0978 0.30644-0.13746 0.10171-0.0396 0.20312-0.0727 0.30334-0.0992s0.19941-0.0463 0.29766-0.0589c0.09825-0.0126 0.19516-0.0181 0.29094-0.016 0.09578 2e-3 0.19036 0.0119 0.28319 0.0295 0.09282 0.0176 0.184 0.0432 0.27337 0.077 0.08937 0.0338 0.17709 0.0758 0.26252 0.12661 0.08543 0.0508 0.16861 0.11022 0.2496 0.1788 0.08099 0.0686 0.15958 0.14644 0.23565 0.23358 0.07606 0.0871 0.1495 0.18342 0.22014 0.2899 0.0897 0.1352 0.1845 0.26769 0.28422 0.39688 0.09972 0.12918 0.20428 0.25502 0.31367 0.37827 0.1094 0.12325 0.22389 0.24381 0.34262 0.36121 0.11872 0.11741 0.24178 0.23201 0.36949 0.34365 0.1277 0.11165 0.26002 0.22011 0.39636 0.32608 0.13633 0.10597 0.27654 0.20916 0.42116 0.30954 0.14462 0.10039 0.29341 0.19813 0.44597 0.29301 0.15256 0.0949 0.30907 0.187 0.46922 0.27647 0.16016 0.0895 0.32404 0.17631 0.49144 0.26045 0.1674 0.0841 0.33833 0.16553 0.51263 0.24443 0.1743 0.0789 0.35193 0.15519 0.53278 0.22892 0.18086 0.0737 0.36484 0.14476 0.5519 0.21343 0.18706 0.0687 0.37707 0.13476 0.56999 0.19844 0.19292 0.0637 0.38912 0.12518 0.58756 0.18396 0.19844 0.0588 0.39946 0.11502 0.60306 0.16898 0.2036 0.054 0.40962 0.10579 0.61805 0.15503 0.20842 0.0492 0.4191 0.096 0.632 0.14056 0.2129 0.0446 0.42789 0.0871 0.64492 0.12713 0.21702 0.04 0.436 0.0776 0.65681 0.11317 0.2208 0.0356 0.44342 0.0691 0.66766 0.10025 0.22424 0.0312 0.45015 0.0599 0.67748 0.0868 0.22733 0.0269 0.45619 0.0517 0.68626 0.0744 0.46014 0.0454 0.92521 0.0826 1.3942 0.11162 0.46902 0.0291 0.94183 0.0502 1.417 0.0636 0.47513 0.0134 0.95296 0.0191 1.4314 0.0176 0.47847-2e-3 0.95757-0.0106 1.4366-0.0264 0.47904-0.0158 0.95771-0.0383 1.4345-0.0677 0.47683-0.0294 0.95184-0.0657 1.4237-0.108 0.47185-0.0423 0.94047-0.0908 1.4046-0.14521 0.4641-0.0545 0.92361-0.11439 1.3772-0.18035 0.45357-0.066 0.90125-0.13768 1.3415-0.21446 0.44027-0.0768 0.8734-0.15907 1.2976-0.24598 0.42419-0.0869 0.83953-0.17857 1.2449-0.27492 0.40535-0.0964 0.80069-0.1972 1.1844-0.30231 0.38374-0.1051 0.75584-0.21446 1.1152-0.32762 0.35934-0.11317 0.70601-0.23034 1.0382-0.35089 0.33218-0.12054 0.65016-0.24432 0.9524-0.37155 0.15112-0.0636 0.2982-0.12811 0.44132-0.19327 0.14311-0.0652 0.28226-0.13079 0.41702-0.1974 0.13477-0.0666 0.26513-0.13407 0.3912-0.20206 0.12606-0.068 0.24781-0.13692 0.36483-0.20619 0.11702-0.0693 0.2293-0.13882 0.33693-0.20929 0.10763-0.0705 0.21062-0.14184 0.30851-0.21342 0.0979-0.0716 0.19072-0.1434 0.27853-0.21601 0.0878-0.0726 0.17016-0.14607 0.24754-0.21962 0.0774-0.0736 0.14992-0.14729 0.21652-0.22169s0.12745-0.14911 0.18294-0.22428c0.0555-0.0752 0.10533-0.15101 0.14934-0.22686 0.044-0.0759 0.082-0.15196 0.1142-0.22841 0.0495-0.11762 0.10319-0.2245 0.16072-0.32143 0.0575-0.0969 0.11906-0.18389 0.18396-0.26096 0.0325-0.0385 0.0661-0.0748 0.10026-0.10852 0.0342-0.0337 0.0691-0.065 0.1049-0.0941 0.0358-0.029 0.0721-0.0557 0.10956-0.0801 0.0374-0.0244 0.0758-0.0467 0.11472-0.0667 0.0778-0.0399 0.15849-0.0705 0.24184-0.093 0.0834-0.0225 0.16959-0.0368 0.25787-0.0429z" opacity=".41769"/>
   <path d="m124.03 153.49v5.0369a16.288 15.854 0 0 1 0.0512 5.2e-4 16.288 15.854 0 0 1 0.41238 0.0155 16.288 15.854 0 0 1 0.41186 0.0253 16.288 15.854 0 0 1 0.41083 0.0351 16.288 15.854 0 0 1 0.40979 0.046 16.288 15.854 0 0 1 0.40928 0.0558 16.288 15.854 0 0 1 0.40669 0.0656 16.288 15.854 0 0 1 0.40514 0.076 16.288 15.854 0 0 1 0.40308 0.0858 16.288 15.854 0 0 1 0.40101 0.0956 16.288 15.854 0 0 1 0.39791 0.10594 16.288 15.854 0 0 1 0.39532 0.11524 16.288 15.854 0 0 1 0.39223 0.12505 16.288 15.854 0 0 1 0.3886 0.13488 16.288 15.854 0 0 1 0.38499 0.14417 16.288 15.854 0 0 1 0.38137 0.15348 16.288 15.854 0 0 1 0.37776 0.1633 16.288 15.854 0 0 1 0.37207 0.17208 16.288 15.854 0 0 1 0.36845 0.18191 16.288 15.854 0 0 1 0.36329 0.19017 16.288 15.854 0 0 1 0.35812 0.19946 16.288 15.854 0 0 1 0.35294 0.20826 16.288 15.854 0 0 1 0.34727 0.21653 16.288 15.854 0 0 1 0.3421 0.2253 16.288 15.854 0 0 1 0.33538 0.23358 16.288 15.854 0 0 1 0.32969 0.24185 16.288 15.854 0 0 1 0.32298 0.25011 16.288 15.854 0 0 1 0.31678 0.25787 16.288 15.854 0 0 1 0.30954 0.2651 16.288 15.854 0 0 1 0.30283 0.27285 16.288 15.854 0 0 1 0.29558 0.2806 16.288 15.854 0 0 1 0.28784 0.28784 16.288 15.854 0 0 1 0.2806 0.29455 16.288 15.854 0 0 1 0.27234 0.30128 16.288 15.854 0 0 1 0.2651 0.30799 16.288 15.854 0 0 1 0.25683 0.31471 16.288 15.854 0 0 1 0.24805 0.32039 16.288 15.854 0 0 1 0.23978 0.3266 16.288 15.854 0 0 1 0.23202 0.3328 16.288 15.854 0 0 1 0.22221 0.33796 16.288 15.854 0 0 1 0.21394 0.34365 16.288 15.854 0 0 1 0.20516 0.34881 16.288 15.854 0 0 1 0.19534 0.35399 16.288 15.854 0 0 1 0.18655 0.35811 16.288 15.854 0 0 1 0.17673 0.36277 16.288 15.854 0 0 1 0.16743 0.36742 16.288 15.854 0 0 1 0.15813 0.37104 16.288 15.854 0 0 1 0.14831 0.37465 16.288 15.854 0 0 1 0.1385 0.37828 16.288 15.854 0 0 1 0.12815 0.38188 16.288 15.854 0 0 1 0.11886 0.38499 16.288 15.854 0 0 1 0.10852 0.38706 16.288 15.854 0 0 1 0.0982 0.39016 16.288 15.854 0 0 1 0.0878 0.39222 16.288 15.854 0 0 1 0.0786 0.39481 16.288 15.854 0 0 1 0.0677 0.39584 16.288 15.854 0 0 1 0.0568 0.39791 16.288 15.854 0 0 1 0.047 0.39946 16.288 15.854 0 0 1 0.0362 0.39997 16.288 15.854 0 0 1 0.0264 0.40101 16.288 15.854 0 0 1 0.0155 0.40101 16.288 15.854 0 0 1 6e-3 0.40153 16.288 15.854 0 0 1-0.0455 1.1849 16.288 15.854 0 0 1-0.13643 1.1782 16.288 15.854 0 0 1-0.22634 1.1648 16.288 15.854 0 0 1-0.31523 1.1452 16.288 15.854 0 0 1-0.40256 1.1193 16.288 15.854 0 0 1-0.48731 1.0868 16.288 15.854 0 0 1-0.56895 1.048 16.288 15.854 0 0 1-0.64803 1.0041 16.288 15.854 0 0 1-0.72347 0.95394 16.288 15.854 0 0 1-0.79426 0.89866 16.288 15.854 0 0 1-0.86145 0.83819 16.288 15.854 0 0 1-0.92346 0.7736 16.288 15.854 0 0 1-0.97978 0.70383 16.288 15.854 0 0 1-1.0315 0.63097 16.288 15.854 0 0 1-1.0764 0.55397 16.288 15.854 0 0 1-1.1167 0.47439 16.288 15.854 0 0 1-1.1498 0.39119 16.288 15.854 0 0 1-1.1767 0.30747 16.288 15.854 0 0 1-1.1968 0.21963 16.288 15.854 0 0 1-1.2103 0.13281 16.288 15.854 0 0 1-0.85628 0.0315v5.0457a21.472 20.9 0 0 0 21.111-20.887 21.472 20.9 0 0 0-21.11-20.887z" opacity=".41769"/>
   <rect x="82.023" y="162.12" width="7.0155" height="36.342" ry="3.5078" opacity=".41769"/>
  </g>
 </g>
</svg>
