<?xml version="1.0" encoding="UTF-8" standalone="no"?>
<!-- Created with Inkscape (http://www.inkscape.org/) -->

<svg
   width="37.634941mm"
   height="46.886642mm"
   viewBox="0 0 37.634941 46.886642"
   version="1.1"
   id="svg5"
   inkscape:version="1.1.2 (0a00cf5339, 2022-02-04)"
   sodipodi:docname="pot.svg"
   xmlns:inkscape="http://www.inkscape.org/namespaces/inkscape"
   xmlns:sodipodi="http://sodipodi.sourceforge.net/DTD/sodipodi-0.dtd"
   xmlns="http://www.w3.org/2000/svg"
   xmlns:svg="http://www.w3.org/2000/svg">
  <sodipodi:namedview
     id="namedview7"
     pagecolor="#ffffff"
     bordercolor="#666666"
     borderopacity="1.0"
     inkscape:pageshadow="2"
     inkscape:pageopacity="0.0"
     inkscape:pagecheckerboard="0"
     inkscape:document-units="mm"
     showgrid="false"
     fit-margin-top="0"
     fit-margin-left="0"
     fit-margin-right="0"
     fit-margin-bottom="0"
     inkscape:zoom="0.63013375"
     inkscape:cx="302.31677"
     inkscape:cy="555.43763"
     inkscape:window-width="1920"
     inkscape:window-height="1046"
     inkscape:window-x="1920"
     inkscape:window-y="0"
     inkscape:window-maximized="1"
     inkscape:current-layer="layer1" />
  <defs
     id="defs2" />
  <g
     inkscape:label="Camada 1"
     inkscape:groupmode="layer"
     id="layer1"
     transform="translate(-30.65069,-24.271784)">
    <g
       id="g4764"
       transform="matrix(0.49049034,0,0,0.48271239,-2.9558351,-34.272323)"
       style="stroke:none">
      <path
         style="color:#000000;opacity:0.417692;fill:#ffffff;stroke-width:1.24973;-inkscape-stroke:none;stroke:none"
         d="m 98.59163,121.29327 -0.01707,0.006 c -0.179485,0.003 -0.35932,0.009 -0.538553,0.0223 -0.21717,0.0173 -0.432075,0.0408 -0.647559,0.0752 -0.215211,0.0343 -0.430762,0.0796 -0.643281,0.13103 -0.212574,0.0515 -0.42389,0.11019 -0.632601,0.17842 -0.208088,0.0681 -0.414425,0.1441 -0.617633,0.22859 -0.203842,0.0848 -0.404883,0.17777 -0.602674,0.27877 -0.197835,0.10077 -0.39265,0.20962 -0.583438,0.32618 -0.190657,0.11675 -0.377309,0.24157 -0.559934,0.37356 -0.182691,0.13174 -0.360677,0.27174 -0.534286,0.41817 -0.17363,0.14665 -0.342895,0.29917 -0.506503,0.45998 -0.163542,0.16079 -0.321963,0.33044 -0.474454,0.50459 -0.152479,0.17401 -0.29975,0.35427 -0.440248,0.54082 -0.140432,0.1866 -0.274168,0.37875 -0.401786,0.57707 -0.127882,0.19859 -0.249209,0.40126 -0.363314,0.61054 -0.114018,0.20905 -0.221109,0.42256 -0.320574,0.64117 v 0.003 c -0.09137,0.20135 -0.173641,0.40739 -0.252185,0.61611 -0.03359,-0.0147 -0.06675,-0.0304 -0.100449,-0.0445 h -0.0022 c -0.06916,-0.0291 -0.137817,-0.0565 -0.2073,-0.0836 -0.06926,-0.0271 -0.137259,-0.0527 -0.2073,-0.0781 -0.07025,-0.0255 -0.138671,-0.0517 -0.209445,-0.0752 h -0.0022 -0.0022 c -0.07047,-0.0233 -0.14029,-0.0454 -0.211578,-0.0669 -0.07112,-0.0216 -0.142435,-0.0418 -0.213712,-0.0614 -0.07145,-0.0196 -0.141734,-0.0381 -0.213712,-0.0558 -0.07145,-0.0175 -0.144131,-0.0345 -0.215857,-0.0502 h -0.0022 c -0.07145,-0.0156 -0.144043,-0.0308 -0.215846,-0.0445 -0.07277,-0.0143 -0.144809,-0.0271 -0.21799,-0.039 h -0.0022 c -0.07255,-0.0114 -0.144579,-0.0208 -0.21799,-0.0307 -0.07277,-0.01 -0.146549,-0.02 -0.220125,-0.0278 -0.07298,-0.009 -0.146209,-0.0143 -0.220124,-0.0196 h -0.0022 c -0.0732,-0.006 -0.144667,-0.0128 -0.217991,-0.0167 -0.0732,-0.004 -0.146811,-0.006 -0.220124,-0.009 -0.07309,-0.001 -0.147008,-0.003 -0.220124,-0.003 h -0.0022 c -0.217246,0 -0.434883,0.009 -0.651828,0.0251 -0.217169,0.0173 -0.432072,0.0437 -0.647556,0.0781 -0.215256,0.0344 -0.430829,0.0769 -0.643282,0.12818 -0.21256,0.0515 -0.423828,0.1129 -0.632596,0.1812 -0.208776,0.0682 -0.413785,0.14385 -0.617635,0.22859 -0.203821,0.0845 -0.40489,0.17806 -0.602676,0.27879 -0.197839,0.10105 -0.392641,0.20932 -0.583441,0.32616 -0.190683,0.11676 -0.377323,0.24159 -0.559933,0.37356 -0.182644,0.13175 -0.360647,0.26894 -0.534287,0.41539 v 0.003 c -0.173646,0.14666 -0.342912,0.2992 -0.506504,0.45998 -0.163516,0.16077 -0.321951,0.32765 -0.474447,0.50181 -0.152457,0.17399 -0.299745,0.35427 -0.440252,0.54082 -0.140423,0.1866 -0.274173,0.38153 -0.401784,0.57986 -0.127472,0.19803 -0.249516,0.40181 -0.363315,0.61053 -0.114005,0.20903 -0.221097,0.42254 -0.320572,0.64118 v 0.003 c -0.09928,0.21876 -0.191676,0.44189 -0.275692,0.66907 -0.08385,0.22629 -0.160643,0.45803 -0.228675,0.69138 -0.06825,0.23426 -0.127795,0.47096 -0.179521,0.71088 -0.0517,0.24013 -0.09565,0.48326 -0.130366,0.72761 -0.03472,0.24417 -0.05949,0.48929 -0.07693,0.73598 -0.01758,0.24671 -0.02766,0.49387 -0.02778,0.74154 v 0.003 c 1.24e-4,0.24766 0.01018,0.4949 0.02778,0.74155 0.01744,0.24576 0.04235,0.4927 0.07693,0.73596 0.03472,0.24429 0.07865,0.48463 0.130366,0.72484 0.05173,0.23995 0.111292,0.47944 0.179521,0.71367 0.05936,0.20364 0.124455,0.396 0.190206,0.57986 l 0.339807,0.95062 0.767235,-0.30943 c 0.109334,-0.0441 0.220109,-0.0855 0.331259,-0.12261 0.112212,-0.0375 0.225874,-0.0724 0.341943,-0.1032 0.11578,-0.0307 0.233622,-0.0577 0.350492,-0.0808 0.118411,-0.0234 0.236584,-0.043 0.354767,-0.0585 0.118168,-0.0155 0.238972,-0.0283 0.361178,-0.0362 0.122706,-0.009 0.244102,-0.0114 0.365453,-0.0114 h 36.500345 l 0.26288,-0.63004 c 0.048,-0.11619 0.0934,-0.23444 0.13677,-0.35126 0.0836,-0.22623 0.16065,-0.45753 0.22867,-0.69137 v -0.003 c 0.0678,-0.23293 0.12815,-0.47005 0.17952,-0.70809 v -0.003 c 0.0516,-0.23906 0.0955,-0.48102 0.13037,-0.72482 0.0348,-0.24454 0.0616,-0.49247 0.0791,-0.73877 0.0174,-0.24684 0.0256,-0.49449 0.0256,-0.74155 v -0.003 c -1.2e-4,-0.0845 -0.001,-0.17053 -0.004,-0.25926 -0.002,-0.0714 -0.004,-0.14972 -0.009,-0.23697 -0.004,-0.0874 -0.0109,-0.17369 -0.0171,-0.25926 v -0.003 c -0.005,-0.0719 -0.011,-0.152 -0.0193,-0.23697 v -0.009 c -0.008,-0.0839 -0.0184,-0.16616 -0.0278,-0.24532 v -0.003 -0.003 c -0.01,-0.0764 -0.0206,-0.15662 -0.0321,-0.23696 v -0.009 c -0.0121,-0.0862 -0.0255,-0.16818 -0.0385,-0.24532 v -0.003 c -0.0143,-0.0842 -0.0294,-0.166 -0.0449,-0.24533 l -0.002,-0.003 c -0.016,-0.0814 -0.0316,-0.16037 -0.0491,-0.23975 v -0.003 c -0.0174,-0.0795 -0.036,-0.15932 -0.0556,-0.23975 -0.0194,-0.0798 -0.0404,-0.15905 -0.0619,-0.23974 v -0.003 c -0.0212,-0.0785 -0.0449,-0.15781 -0.0684,-0.23697 v -0.003 c -0.0231,-0.0779 -0.0474,-0.15571 -0.0727,-0.23417 v -0.003 c -0.0256,-0.0792 -0.0521,-0.15702 -0.0791,-0.23417 -0.0271,-0.0772 -0.056,-0.15375 -0.0855,-0.23139 -0.0289,-0.0765 -0.057,-0.15309 -0.0876,-0.2286 -0.0294,-0.0725 -0.062,-0.1463 -0.094,-0.22024 l -0.002,-0.006 c -0.0321,-0.0742 -0.065,-0.148 -0.0983,-0.22022 -0.0346,-0.0751 -0.0695,-0.14856 -0.10472,-0.22024 v -0.003 h -0.002 c -0.0354,-0.0715 -0.0718,-0.14409 -0.10898,-0.21466 l -0.002,-0.003 c -0.037,-0.0708 -0.0746,-0.13945 -0.11326,-0.20909 v -0.003 l -0.002,-0.003 c -0.0378,-0.0677 -0.0756,-0.13332 -0.11541,-0.20071 l -0.004,-0.006 c -0.0395,-0.0677 -0.0791,-0.13503 -0.11968,-0.20073 l -0.002,-0.003 -0.002,-0.003 c -0.0419,-0.0669 -0.0845,-0.13431 -0.12823,-0.20071 v -0.003 c -0.0433,-0.0658 -0.0873,-0.13003 -0.13251,-0.19514 -0.0451,-0.0652 -0.0916,-0.13032 -0.13891,-0.19515 -0.0472,-0.0645 -0.0933,-0.12761 -0.14105,-0.18957 h -0.002 v -0.003 c -0.0476,-0.0615 -0.096,-0.12061 -0.14532,-0.1812 l -0.002,-0.003 c -0.0495,-0.0611 -0.0997,-0.11975 -0.1496,-0.17841 -0.0511,-0.0599 -0.1022,-0.12076 -0.15388,-0.17842 v 0.003 c -0.0523,-0.0585 -0.1045,-0.11875 -0.15815,-0.17563 v 0.003 c -0.0538,-0.0571 -0.10734,-0.11447 -0.16242,-0.17005 h -0.002 c -0.0547,-0.0549 -0.10833,-0.11062 -0.16456,-0.16449 h -0.002 c -0.0551,-0.0525 -0.11112,-0.10591 -0.1667,-0.15611 l -0.004,-0.003 c -0.0557,-0.0508 -0.11162,-0.10092 -0.16884,-0.15054 h -0.002 v -0.003 c -0.0578,-0.0498 -0.1155,-0.0988 -0.17525,-0.14776 -0.0596,-0.0488 -0.12132,-0.0952 -0.18165,-0.14216 -0.0603,-0.047 -0.11997,-0.0939 -0.18166,-0.13945 h -0.002 v -0.003 c -0.0603,-0.0441 -0.12196,-0.0852 -0.1838,-0.12817 l -0.002,-0.003 c -0.0619,-0.0433 -0.1235,-0.0869 -0.18594,-0.12817 v 0.003 c -0.0635,-0.0422 -0.12612,-0.0852 -0.1902,-0.12546 h -0.002 c -0.0642,-0.0401 -0.12916,-0.0787 -0.19448,-0.11704 l -0.002,-0.003 c -0.0643,-0.0377 -0.12933,-0.0728 -0.19448,-0.10876 l -0.002,-0.003 c -0.0651,-0.036 -0.13065,-0.0717 -0.19662,-0.1059 v 0.003 c -0.0667,-0.0348 -0.13334,-0.0702 -0.20089,-0.1032 h -0.002 c -0.0677,-0.033 -0.13489,-0.0638 -0.20303,-0.0948 -0.0684,-0.0311 -0.13652,-0.063 -0.20516,-0.0919 -0.0686,-0.029 -0.13784,-0.0564 -0.20731,-0.0837 h -0.002 c -0.0683,-0.0267 -0.1363,-0.0532 -0.20517,-0.0781 h -0.004 c -0.0689,-0.0251 -0.13795,-0.0521 -0.2073,-0.0752 h -0.002 c -0.0705,-0.0234 -0.14267,-0.0454 -0.21373,-0.0669 -0.0705,-0.0213 -0.14075,-0.042 -0.21156,-0.0614 h -0.002 c -0.0708,-0.0196 -0.14027,-0.038 -0.21158,-0.0558 h -0.002 c -0.0718,-0.0177 -0.14348,-0.0344 -0.21586,-0.0502 h -0.002 -0.002 c -0.0712,-0.0153 -0.14166,-0.0311 -0.21371,-0.0445 h -0.002 c -0.072,-0.0143 -0.14341,-0.0271 -0.21585,-0.039 h -0.002 c -0.0725,-0.0114 -0.14455,-0.0208 -0.21799,-0.0307 -0.0721,-0.01 -0.14512,-0.02 -0.21798,-0.0278 h -0.002 c -0.0723,-0.007 -0.14699,-0.0143 -0.22012,-0.0196 -0.0731,-0.006 -0.14696,-0.0128 -0.22012,-0.0167 -0.0733,-0.004 -0.14682,-0.006 -0.22013,-0.009 -0.0731,-0.001 -0.147,-0.003 -0.22012,-0.003 h -0.002 c -0.21723,3e-5 -0.43488,0.007 -0.65183,0.0251 -0.21696,0.0173 -0.43227,0.0437 -0.64756,0.0781 -0.21543,0.0343 -0.43052,0.0768 -0.64328,0.12818 -0.21254,0.0515 -0.42382,0.1129 -0.63259,0.18121 -0.20809,0.0681 -0.41442,0.14412 -0.61764,0.22859 -0.2038,0.0845 -0.40486,0.17805 -0.60268,0.27879 -0.06,0.0307 -0.118,0.0655 -0.17738,0.0976 -0.0191,-0.0431 -0.0381,-0.0859 -0.0577,-0.12818 h -0.002 v -0.003 c -0.0338,-0.0727 -0.0671,-0.14291 -0.10253,-0.21466 l -0.002,-0.003 c -0.0352,-0.0718 -0.072,-0.14375 -0.10898,-0.21466 v -0.003 h -0.002 c -0.0378,-0.0718 -0.0745,-0.14216 -0.11328,-0.21187 -0.0392,-0.0705 -0.0793,-0.14045 -0.11967,-0.20909 v -0.003 c -0.0398,-0.0675 -0.0821,-0.13345 -0.12395,-0.20071 l -0.002,-0.003 c -0.0414,-0.0668 -0.0824,-0.13389 -0.12609,-0.20073 h -0.002 v -0.003 c -0.0437,-0.0664 -0.089,-0.13203 -0.13464,-0.19793 -0.0457,-0.0658 -0.0907,-0.12946 -0.13678,-0.19235 -0.0468,-0.0641 -0.0947,-0.1266 -0.14319,-0.18958 -0.0483,-0.0627 -0.0964,-0.12646 -0.14532,-0.18678 h -0.002 c -0.0488,-0.0602 -0.0987,-0.12146 -0.1496,-0.1812 -0.0506,-0.0592 -0.101,-0.11961 -0.15388,-0.17842 -0.0525,-0.0585 -0.10702,-0.11647 -0.16028,-0.17283 -0.0526,-0.0555 -0.10636,-0.11034 -0.1603,-0.16449 l -0.004,-0.003 c -0.0534,-0.054 -0.10735,-0.10877 -0.16243,-0.16169 l -0.002,-0.003 c -0.055,-0.0525 -0.111,-0.10277 -0.1667,-0.15332 l -0.004,-0.003 c -0.0559,-0.051 -0.11189,-0.10391 -0.16884,-0.15332 h -0.002 l -0.002,-0.003 c -0.0571,-0.0491 -0.11444,-0.0969 -0.17311,-0.14496 l -0.002,-0.003 c -0.0587,-0.0481 -0.11765,-0.0956 -0.17738,-0.14217 h -0.002 -0.002 c -0.0593,-0.0458 -0.11861,-0.0919 -0.17951,-0.13659 l -0.002,-0.003 c -0.0611,-0.045 -0.12229,-0.0881 -0.1838,-0.13103 -0.0627,-0.044 -0.12476,-0.0863 -0.18807,-0.12817 h -0.002 v -0.003 c -0.0627,-0.0413 -0.1267,-0.0804 -0.19021,-0.1199 l -0.002,-0.003 c -0.0635,-0.0395 -0.12811,-0.0794 -0.19234,-0.11704 v 0.003 c -0.0652,-0.0384 -0.13061,-0.0776 -0.19662,-0.11433 h -0.002 c -0.0653,-0.0361 -0.13041,-0.0715 -0.19662,-0.10591 h -0.002 c -0.0662,-0.0347 -0.13224,-0.0678 -0.19875,-0.10034 l -0.002,-0.003 h -0.002 c -0.0661,-0.032 -0.13194,-0.0618 -0.19876,-0.0921 l -0.004,-0.003 c -0.067,-0.0307 -0.13376,-0.0605 -0.20089,-0.0892 h -0.002 l -0.002,-0.003 c -0.0692,-0.0291 -0.13782,-0.0565 -0.2073,-0.0836 -0.0682,-0.0267 -0.13632,-0.0532 -0.20516,-0.0781 h -0.004 c -0.0689,-0.0251 -0.13842,-0.0494 -0.2073,-0.0725 h -0.002 l -0.002,-0.003 c -0.0705,-0.0233 -0.14029,-0.0454 -0.21158,-0.0669 -0.0711,-0.0216 -0.14243,-0.0418 -0.21371,-0.0614 -0.0716,-0.0196 -0.14367,-0.0381 -0.21586,-0.0558 -0.0711,-0.0174 -0.14202,-0.0345 -0.21371,-0.0502 h -0.002 c -0.0714,-0.0156 -0.14408,-0.0281 -0.21586,-0.0418 -0.0728,-0.0143 -0.14483,-0.0271 -0.21799,-0.039 h -0.002 c -0.07255,-0.0114 -0.144577,-0.0237 -0.217988,-0.0334 -0.07277,-0.01 -0.14656,-0.02 -0.220124,-0.0278 -0.07299,-0.007 -0.14621,-0.0143 -0.220125,-0.0196 h -0.0022 c -0.07331,-0.006 -0.144678,-0.01 -0.21799,-0.0143 -0.07331,-0.004 -0.146812,-0.009 -0.220125,-0.0114 -0.07309,-10e-4 -0.147008,-0.003 -0.220135,-0.003 h -0.0022 z m 0.09618,2.40585 c 0.06106,1.2e-4 0.120605,0.001 0.181662,0.003 0.06128,0.001 0.124599,0.006 0.18593,0.009 0.06139,0.003 0.122673,0.006 0.183796,0.0114 0.05974,0.004 0.119084,0.01 0.179518,0.0167 0.06051,0.007 0.120758,0.0143 0.181651,0.0223 h 0.0022 c 0.05953,0.009 0.119478,0.0183 0.179518,0.0278 0.06018,0.01 0.119412,0.0191 0.179518,0.0307 0.05974,0.0114 0.120127,0.0233 0.179527,0.0363 0.0595,0.0128 0.12002,0.0273 0.17952,0.0418 0.0594,0.0146 0.11804,0.0313 0.17738,0.0474 0.0589,0.0161 0.11725,0.0327 0.17524,0.0503 h 0.002 c 0.0584,0.0175 0.11686,0.0365 0.17524,0.0558 0.0566,0.019 0.11344,0.0382 0.16884,0.0585 h 0.002 c 0.0575,0.0207 0.11615,0.0447 0.17312,0.0669 0.0557,0.0217 0.10977,0.0438 0.16456,0.0669 0.0563,0.0241 0.11364,0.0471 0.16882,0.0725 l 0.002,0.003 h 0.002 c 0.0556,0.0251 0.11172,0.0515 0.1667,0.0781 0.0535,0.0263 0.10581,0.0535 0.15814,0.0808 h 0.002 c 0.0536,0.0278 0.10735,0.0572 0.16029,0.0864 0.0535,0.0297 0.10745,0.0609 0.16029,0.0921 0.0526,0.031 0.10428,0.0625 0.156,0.0948 h 0.002 c 0.0519,0.0323 0.10297,0.0668 0.15387,0.10034 0.0502,0.0333 0.10067,0.0661 0.1496,0.10035 0.0502,0.0351 0.10089,0.0728 0.1496,0.10876 h 0.002 c 0.0489,0.0358 0.0989,0.0739 0.14747,0.11148 0.0465,0.0364 0.0933,0.0739 0.13891,0.11147 h 0.002 c 0.0471,0.0384 0.0944,0.0798 0.14104,0.1199 0.0448,0.0388 0.0888,0.0772 0.13251,0.11704 l 0.002,0.003 c 0.0452,0.041 0.0911,0.0839 0.13465,0.12546 0.0428,0.0411 0.0838,0.0828 0.12608,0.12546 h 0.002 l 0.002,0.003 c 0.0426,0.0427 0.0847,0.0872 0.12609,0.13103 v -0.003 c 0.0421,0.0445 0.0835,0.0916 0.12395,0.1366 0.0394,0.0438 0.0785,0.0908 0.11754,0.1366 v -0.003 c 0.039,0.0458 0.0789,0.0945 0.11755,0.14216 0.0383,0.0473 0.0748,0.0949 0.11113,0.14217 0.0369,0.048 0.0752,0.0958 0.11113,0.14496 0.0362,0.0495 0.0708,0.0989 0.10472,0.14776 0.0341,0.0491 0.0671,0.0998 0.10045,0.15054 0.0322,0.0492 0.0645,0.0993 0.0962,0.15054 h 0.002 v 0.003 c 0.0316,0.0507 0.0631,0.10091 0.094,0.15332 h -0.002 c 0.0308,0.0524 0.0607,0.10377 0.0897,0.15612 h 0.002 v 0.003 c 0.0297,0.0534 0.0576,0.10591 0.0855,0.15889 0.0267,0.0514 0.0535,0.10391 0.0791,0.15612 l 0.002,0.003 c 0.0266,0.0537 0.0516,0.10733 0.0769,0.16169 0.0252,0.0544 0.0495,0.10805 0.0727,0.16169 v 0.003 c 0.0233,0.0538 0.0475,0.10777 0.0705,0.16447 0.0225,0.0555 0.0451,0.11134 0.0663,0.16727 0.0207,0.0551 0.0409,0.11034 0.0599,0.16449 v 0.003 c 0.0198,0.0565 0.0397,0.11447 0.0577,0.17005 0.008,0.0253 0.0148,0.052 0.0235,0.0808 l 0.38255,1.26285 0.9147,-0.64397 c 0.11962,-0.0842 0.24075,-0.16586 0.36545,-0.24253 0.15385,-0.0942 0.3116,-0.18273 0.47231,-0.26485 0.16066,-0.0818 0.32501,-0.15671 0.49154,-0.2258 0.16655,-0.0692 0.33504,-0.1336 0.50651,-0.18957 0.17069,-0.0558 0.34473,-0.10534 0.51932,-0.14776 0.17529,-0.0424 0.35404,-0.0775 0.53216,-0.10591 0.17798,-0.0284 0.35679,-0.0498 0.53642,-0.0641 0.17929,-0.0143 0.35843,-0.0196 0.53856,-0.0196 h 0.002 c 0.0604,1.4e-4 0.1213,0.001 0.18165,0.003 0.0613,0.001 0.12246,0.003 0.1838,0.006 0.0604,0.003 0.12127,0.009 0.18166,0.0143 0.0605,0.006 0.1205,0.01 0.18165,0.0167 0.0604,0.007 0.12075,0.0143 0.18166,0.0223 h 0.002 c 0.0595,0.009 0.11948,0.0154 0.17952,0.0251 0.0602,0.01 0.11941,0.022 0.17952,0.0334 h 0.002 0.002 c 0.0592,0.0114 0.11807,0.0236 0.17739,0.0362 0.0595,0.0128 0.11788,0.0273 0.17738,0.0418 l -0.002,-0.003 c 0.0592,0.0147 0.11839,0.031 0.17739,0.0474 h 0.002 c 0.059,0.0161 0.11902,0.0354 0.17739,0.053 0.0577,0.0174 0.11364,0.034 0.17097,0.053 0.058,0.0194 0.11572,0.0404 0.17311,0.0614 h 0.002 0.002 c 0.0573,0.0207 0.11403,0.0418 0.17097,0.0641 0.0567,0.0223 0.11248,0.0458 0.16883,0.0697 0.0565,0.0238 0.11144,0.0474 0.16671,0.0725 0.0551,0.0251 0.11036,0.0517 0.16456,0.0781 0.0549,0.0268 0.11027,0.0554 0.16455,0.0836 h 0.002 c 0.0542,0.0281 0.1068,0.0568 0.1603,0.0863 h 0.002 c 0.0535,0.0294 0.10538,0.0612 0.15815,0.0921 v -0.003 c 0.0518,0.0304 0.10264,0.0628 0.15388,0.0948 0.0518,0.0325 0.10341,0.0639 0.15387,0.0976 v 0.003 c 0.0511,0.0338 0.10198,0.0684 0.15174,0.1032 h 0.002 c 0.0498,0.0345 0.0999,0.0724 0.14961,0.10876 0.0481,0.0355 0.0977,0.0717 0.14532,0.10877 0.0485,0.0377 0.096,0.0757 0.14319,0.11433 0.0465,0.0381 0.0925,0.0769 0.13891,0.11704 0.045,0.0391 0.0902,0.0794 0.13464,0.1199 l 0.002,0.003 h 0.002 c 0.0456,0.0412 0.0909,0.0839 0.13464,0.12546 0.0425,0.0405 0.0844,0.0835 0.12609,0.12547 0.0427,0.043 0.0847,0.0871 0.1261,0.13103 0.0416,0.0441 0.0837,0.0888 0.12395,0.13374 0.0406,0.0454 0.0808,0.0911 0.11969,0.1366 0.0396,0.0465 0.078,0.0931 0.1154,0.13945 l 0.002,0.003 h 0.002 c 0.038,0.0465 0.0763,0.0943 0.11328,0.14217 0.0365,0.0475 0.0702,0.0949 0.10471,0.14216 h 0.002 c 0.0352,0.0481 0.0701,0.0978 0.10472,0.14776 v 0.003 c 0.0343,0.0494 0.0671,0.0998 0.10045,0.15054 h 0.002 c 0.033,0.0501 0.0661,0.10177 0.0983,0.15333 0.0306,0.0497 0.0607,0.0981 0.0897,0.14774 v 0.003 l 0.002,0.006 c 0.0304,0.0515 0.0601,0.10291 0.0897,0.15612 0.0287,0.0517 0.056,0.10106 0.0834,0.15333 l 0.002,0.003 v 0.003 c 0.0279,0.053 0.0568,0.10534 0.0834,0.15891 0.0264,0.0537 0.0508,0.10677 0.0748,0.15891 0.0252,0.0545 0.0493,0.10762 0.0727,0.16169 v 0.003 h 0.002 c 0.0233,0.0538 0.0454,0.11062 0.0684,0.16727 0.0225,0.0555 0.0451,0.11133 0.0663,0.16726 0.0209,0.055 0.0421,0.11062 0.0619,0.16727 h -0.002 c 0.0198,0.0565 0.0397,0.11162 0.0577,0.16727 0.0181,0.0559 0.0343,0.11247 0.0513,0.17005 l 0.002,0.003 c 0.0167,0.0562 0.0313,0.11204 0.047,0.17005 0.0149,0.0557 0.0288,0.11262 0.0428,0.17005 h 0.002 c 0.0139,0.057 0.0256,0.11419 0.0385,0.17284 l 0.002,0.003 v 0.003 c 0.0129,0.0585 0.0251,0.11547 0.0363,0.17285 l -0.002,-0.003 c 0.0117,0.0605 0.0225,0.11947 0.0321,0.17562 0.01,0.0595 0.0207,0.11361 0.0278,0.16448 v 0.006 0.003 c 0.009,0.0581 0.0158,0.11832 0.0235,0.1812 0.007,0.0575 0.0121,0.11119 0.0171,0.16449 l 0.002,0.003 v 0.006 c 0.005,0.0535 0.01,0.11333 0.015,0.1812 0.004,0.0559 0.008,0.11276 0.0109,0.16727 0.002,0.0552 0.004,0.11833 0.007,0.18957 0.002,0.0538 0.002,0.10905 0.002,0.16727 -6e-5,0.17335 -0.007,0.3461 -0.0193,0.51852 -0.0124,0.17377 -0.0289,0.3465 -0.0534,0.51853 -0.0246,0.17215 -0.057,0.3419 -0.094,0.51294 v 0.003 c -0.0369,0.17085 -0.0793,0.33949 -0.12823,0.50737 -0.0119,0.0413 -0.0279,0.0817 -0.0406,0.12261 H 82.028734 c -0.155373,0 -0.309011,0.007 -0.459487,0.0167 -0.150976,0.01 -0.301928,0.0247 -0.453076,0.0445 -0.151132,0.0198 -0.299952,0.0434 -0.446664,0.0725 -0.148247,0.0294 -0.295437,0.0647 -0.440252,0.10319 -0.0015,4e-4 -0.0027,0.003 -0.0043,0.003 -4.27e-4,-10e-4 -0.0018,-0.003 -0.0022,-0.006 -0.03677,-0.17077 -0.06737,-0.34319 -0.09189,-0.51574 -0.02451,-0.17238 -0.04331,-0.34514 -0.05556,-0.51853 -0.01235,-0.17352 -0.01915,-0.3476 -0.01924,-0.52131 1.47e-4,-0.17276 0.0069,-0.346 0.01924,-0.51852 v -0.003 c 0.01226,-0.17339 0.03105,-0.34614 0.05556,-0.51852 0.02438,-0.17158 0.05537,-0.34298 0.09189,-0.51296 v -0.003 c 0.03668,-0.16982 0.07948,-0.34003 0.128228,-0.50737 0.0491,-0.1684 0.103316,-0.33392 0.164561,-0.49902 v -0.003 c 0.061,-0.16497 0.130034,-0.32702 0.203029,-0.48785 h -0.0022 c 0.07317,-0.16084 0.152299,-0.31822 0.237223,-0.47394 0.08503,-0.15595 0.177022,-0.31007 0.273555,-0.45997 0.09632,-0.14972 0.19818,-0.29494 0.305612,-0.43768 0.107496,-0.14274 0.2196,-0.28063 0.337669,-0.41539 v -0.003 c 0.118101,-0.13489 0.2416,-0.26432 0.369727,-0.3903 0.127703,-0.12546 0.260505,-0.24661 0.397509,-0.3624 0.137477,-0.1159 0.279185,-0.22639 0.425293,-0.33174 h 0.0022 c 0.145986,-0.10548 0.295053,-0.20698 0.448801,-0.30109 0.153824,-0.0942 0.311596,-0.18273 0.47231,-0.26484 0.160683,-0.0818 0.325026,-0.15671 0.491544,-0.22581 0.166566,-0.0692 0.335035,-0.13074 0.506503,-0.18678 0.171374,-0.0561 0.346171,-0.10805 0.521465,-0.15054 l -0.0022,0.003 c 0.175192,-0.0422 0.352104,-0.0804 0.530012,-0.10876 0.178149,-0.0284 0.358759,-0.0498 0.538561,-0.0641 0.179311,-0.0143 0.358437,-0.0196 0.53856,-0.0196 0.06106,1.3e-4 0.120605,0.001 0.181662,0.003 h 0.0022 c 0.06128,0.001 0.122466,0.003 0.183797,0.006 0.06062,0.003 0.121228,0.01 0.181662,0.0143 0.0604,0.004 0.120517,0.01 0.181651,0.0167 0.0604,0.007 0.120747,0.0143 0.181663,0.0223 h 0.0022 c 0.06029,0.009 0.1209,0.0181 0.181662,0.0278 l -0.0022,-0.003 c 0.06018,0.01 0.119401,0.022 0.179518,0.0334 0.05974,0.0114 0.120123,0.0233 0.179528,0.0363 h 0.0022 c 0.05985,0.0128 0.118044,0.0273 0.177384,0.0418 0.0592,0.0146 0.118383,0.0284 0.177384,0.0445 0.05887,0.0161 0.117256,0.0354 0.17525,0.053 h 0.0022 c 0.05843,0.0176 0.116863,0.0365 0.17524,0.0558 0.05646,0.0188 0.112956,0.0383 0.168838,0.0585 h 0.0022 c 0.05723,0.0207 0.114204,0.0418 0.170972,0.0641 h 0.0022 c 0.05701,0.0223 0.112782,0.0461 0.168828,0.0697 0.05624,0.0238 0.111347,0.0472 0.166704,0.0725 0.05515,0.0251 0.110363,0.0517 0.16456,0.0781 0.05504,0.0268 0.110417,0.0554 0.164559,0.0836 0.05416,0.0281 0.107234,0.0571 0.160282,0.0865 h 0.0022 0.0022 c 0.04815,0.0266 0.09487,0.0555 0.14319,0.0836 l 0.944618,0.5464 0.309883,-1.28236 c 0.0256,-0.10577 0.05318,-0.21323 0.08338,-0.31782 v 0.006 c 0.04902,-0.16828 0.103294,-0.33651 0.164559,-0.50179 h 0.0022 c 0.06062,-0.16379 0.126284,-0.32795 0.198754,-0.48787 l 0.0022,-0.003 c 0.07277,-0.15974 0.150751,-0.31929 0.235093,-0.47392 0.08502,-0.156 0.177023,-0.30731 0.273555,-0.4572 v -0.003 c 0.09629,-0.14972 0.198174,-0.29493 0.305605,-0.43768 0.107452,-0.14274 0.219621,-0.28066 0.337676,-0.41539 0.11811,-0.13488 0.241604,-0.26711 0.369726,-0.39307 0.127663,-0.12547 0.26049,-0.24662 0.397508,-0.36242 0.137489,-0.1159 0.281379,-0.22643 0.427424,-0.33174 0.14598,-0.10548 0.295046,-0.20697 0.448805,-0.30109 0.15387,-0.0941 0.311612,-0.18016 0.472309,-0.26204 0.160654,-0.0821 0.325016,-0.15929 0.491546,-0.22861 0.16654,-0.0692 0.335028,-0.13074 0.506503,-0.18678 0.171453,-0.0561 0.346211,-0.10534 0.521461,-0.14774 0.175141,-0.0423 0.349943,-0.0775 0.527885,-0.10591 h 0.0022 c 0.17815,-0.0284 0.356617,-0.0498 0.53642,-0.0641 0.17932,-0.0143 0.358444,-0.0223 0.538564,-0.0223 z"
         id="path1395" />
      <path
         id="path417"
         style="opacity:0.417692;fill:#ffffff;stroke:none;stroke-width:0.264583"
         d="m 119.54149,134.60745 c -0.69227,-0.0144 -1.27739,0.36326 -1.65623,1.2702 -2.42445,5.80418 -33.746547,10.26463 -40.502436,0 -2.660282,-4.04192 -8.734351,3.89553 -8.734351,8.73436 v 64.93453 c 0,4.83883 3.895524,8.73435 8.734351,8.73435 h 40.502436 c 4.83883,0 8.73435,-3.89552 8.73435,-8.73435 v -64.93453 c 0,-3.85595 -4.36227,-9.94807 -7.07812,-10.00456 z m -3.42511,7.59126 c 0.0883,-0.006 0.17872,-0.004 0.2713,0.006 0.0926,0.01 0.18692,0.0268 0.28319,0.0512 0.0963,0.0244 0.19418,0.0557 0.29352,0.0941 0.0993,0.0384 0.20052,0.0834 0.30231,0.13488 0.10179,0.0515 0.20436,0.10934 0.30799,0.17311 0.10363,0.0638 0.2083,0.13356 0.31315,0.20877 0.10486,0.0752 0.20977,0.15603 0.31523,0.24185 0.10546,0.0858 0.21133,0.17675 0.31678,0.27233 0.10545,0.0956 0.21091,0.19574 0.31574,0.30025 0.10483,0.1045 0.20906,0.21349 0.31265,0.32607 0.10358,0.11258 0.20625,0.229 0.30799,0.34882 0.10173,0.11982 0.20252,0.24275 0.30179,0.36897 0.0993,0.12622 0.19683,0.2558 0.293,0.38757 0.0962,0.13178 0.19072,0.26607 0.28319,0.40256 0.0925,0.13649 0.18315,0.27512 0.2713,0.41548 0.0881,0.14036 0.17413,0.28242 0.25735,0.42581 0.0832,0.1434 0.16366,0.28798 0.24133,0.43357 0.0777,0.14559 0.15226,0.29231 0.22376,0.43925 0.0715,0.14694 0.13992,0.29438 0.20464,0.44183 0.0647,0.14745 0.12561,0.29472 0.18293,0.44184 0.0573,0.14711 0.11089,0.29382 0.1602,0.43976 0.0493,0.14595 0.0947,0.29119 0.13539,0.43512 0.0407,0.14393 0.0766,0.2868 0.108,0.42788 0.0314,0.14108 0.058,0.28016 0.0796,0.41754 0.0216,0.13739 0.0385,0.27282 0.0496,0.40566 0.0111,0.13285 0.0165,0.26321 0.0165,0.39068 v 54.73826 c 0,0.12747 -0.003,0.25398 -0.01,0.37982 -0.006,0.12584 -0.0158,0.25111 -0.0284,0.37517 -0.0126,0.12406 -0.0283,0.24685 -0.047,0.36897 -0.0187,0.12213 -0.0405,0.24324 -0.0651,0.36328 -0.0246,0.12005 -0.0523,0.23929 -0.0827,0.35709 -0.0304,0.11781 -0.0637,0.23443 -0.0997,0.34985 -0.036,0.11542 -0.0748,0.22974 -0.11627,0.34261 -0.0415,0.11288 -0.0855,0.22417 -0.13229,0.33435 -0.0468,0.11018 -0.0963,0.21926 -0.14831,0.3266 -0.052,0.10734 -0.1063,0.21295 -0.1633,0.31729 -0.057,0.10434 -0.11694,0.20731 -0.1788,0.30851 -0.0619,0.10119 -0.12567,0.20079 -0.19224,0.29869 -0.0666,0.0979 -0.13559,0.19391 -0.2067,0.28835 -0.0711,0.0944 -0.14463,0.18718 -0.22014,0.27802 -0.0755,0.0908 -0.15279,0.18008 -0.23255,0.26717 -0.0798,0.0871 -0.16161,0.1721 -0.24546,0.25528 -0.0838,0.0832 -0.17008,0.16428 -0.25787,0.24339 -0.0878,0.0791 -0.17714,0.15609 -0.26871,0.231 -0.0916,0.0749 -0.1854,0.14805 -0.2806,0.21859 -0.0952,0.0705 -0.19226,0.13861 -0.29094,0.20464 -0.0987,0.066 -0.19875,0.12984 -0.30076,0.1912 -0.10201,0.0614 -0.20591,0.12019 -0.31109,0.17674 -0.10519,0.0565 -0.21168,0.11069 -0.31988,0.16226 -0.10821,0.0516 -0.21811,0.10083 -0.32918,0.14728 -0.11107,0.0464 -0.22314,0.0901 -0.33693,0.13126 -0.11378,0.0412 -0.22885,0.0795 -0.3452,0.11523 -0.11634,0.0358 -0.23419,0.0691 -0.35295,0.0992 -0.11875,0.0302 -0.23866,0.0572 -0.35967,0.0816 -0.12101,0.0244 -0.24327,0.046 -0.36638,0.0646 -0.12311,0.0186 -0.24701,0.0345 -0.37207,0.047 -0.12506,0.0125 -0.2509,0.0216 -0.37776,0.0279 -0.12685,0.006 -0.25494,0.01 -0.38344,0.01 H 80.425017 c -0.128495,0 -0.25607,-0.003 -0.382924,-0.01 -0.126852,-0.006 -0.252696,-0.0154 -0.377754,-0.0279 -0.125058,-0.0125 -0.249478,-0.0285 -0.372588,-0.047 -0.123108,-0.0186 -0.244859,-0.0402 -0.365869,-0.0646 -0.121007,-0.0244 -0.240914,-0.0515 -0.359667,-0.0816 -0.118753,-0.0302 -0.236603,-0.0635 -0.352951,-0.0992 -0.116345,-0.0357 -0.231413,-0.0741 -0.345197,-0.11523 -0.113786,-0.0412 -0.226377,-0.0848 -0.337447,-0.13126 -0.111072,-0.0465 -0.220458,-0.0957 -0.328662,-0.14728 -0.108204,-0.0516 -0.215212,-0.10572 -0.320395,-0.16226 -0.105182,-0.0566 -0.208566,-0.11538 -0.310576,-0.17674 -0.10201,-0.0614 -0.202589,-0.12517 -0.301273,-0.1912 -0.09868,-0.066 -0.195733,-0.1341 -0.290938,-0.20464 -0.09521,-0.0705 -0.188516,-0.14368 -0.280086,-0.21859 -0.09157,-0.0749 -0.181448,-0.15188 -0.269234,-0.231 -0.08779,-0.0791 -0.173503,-0.16021 -0.25735,-0.24339 -0.08385,-0.0832 -0.165708,-0.1682 -0.245462,-0.25528 -0.07976,-0.0871 -0.157551,-0.17633 -0.233061,-0.26717 -0.07551,-0.0908 -0.148513,-0.18358 -0.219625,-0.27802 -0.07111,-0.0944 -0.140145,-0.19046 -0.206706,-0.28835 -0.06656,-0.0979 -0.130897,-0.1975 -0.192751,-0.29869 -0.06186,-0.1012 -0.121288,-0.20417 -0.178285,-0.30851 -0.057,-0.10434 -0.11131,-0.20995 -0.163298,-0.31729 -0.05199,-0.10734 -0.101489,-0.21642 -0.148312,-0.3266 -0.04682,-0.11018 -0.0913,-0.22147 -0.132808,-0.33435 -0.04151,-0.11287 -0.08023,-0.22719 -0.116271,-0.34261 -0.03604,-0.11542 -0.06932,-0.23204 -0.09974,-0.34985 -0.03041,-0.1178 -0.05804,-0.23704 -0.08268,-0.35709 -0.02464,-0.12004 -0.04641,-0.24115 -0.06511,-0.36328 -0.01871,-0.12212 -0.0344,-0.24491 -0.04703,-0.36897 -0.01262,-0.12406 -0.02203,-0.24933 -0.02842,-0.37517 -0.0064,-0.12584 -0.0093,-0.25235 -0.0093,-0.37982 v -54.73826 c 0,-0.12747 0.0046,-0.25746 0.01447,-0.38964 0.0098,-0.13218 0.02475,-0.26644 0.04393,-0.40256 0.01918,-0.13612 0.04277,-0.27413 0.0708,-0.41341 0.02803,-0.13929 0.06025,-0.28001 0.09663,-0.42168 0.03639,-0.14167 0.07719,-0.28409 0.121441,-0.42737 0.04425,-0.14328 0.09203,-0.28738 0.143661,-0.4315 0.05163,-0.14411 0.106852,-0.28835 0.165365,-0.43253 0.05851,-0.14417 0.120615,-0.28804 0.185518,-0.43149 0.0649,-0.14346 0.132805,-0.28644 0.203604,-0.4284 0.0708,-0.14197 0.144452,-0.28302 0.220658,-0.42272 0.07621,-0.13969 0.154524,-0.27831 0.235645,-0.41496 0.08112,-0.13665 0.165087,-0.27127 0.25063,-0.40411 0.08554,-0.13283 0.173045,-0.26347 0.262517,-0.3917 0.08947,-0.12824 0.180459,-0.25438 0.273367,-0.37724 0.09291,-0.12287 0.187849,-0.24295 0.283705,-0.35967 0.09586,-0.11672 0.19263,-0.22972 0.290938,-0.33951 0.09831,-0.1098 0.197901,-0.21623 0.298173,-0.31833 0.100271,-0.1021 0.201599,-0.1999 0.303342,-0.29352 0.10174,-0.0936 0.203721,-0.1828 0.30644,-0.26717 0.102719,-0.0844 0.205822,-0.16388 0.309026,-0.23823 0.103203,-0.0743 0.206861,-0.14368 0.310057,-0.20722 0.103198,-0.0635 0.206327,-0.12167 0.309025,-0.17363 0.102698,-0.052 0.204735,-0.0978 0.306443,-0.13746 0.101706,-0.0396 0.203116,-0.0727 0.30334,-0.0992 0.100224,-0.0265 0.199408,-0.0463 0.297656,-0.0589 0.09825,-0.0126 0.195157,-0.0181 0.290938,-0.016 0.09578,0.002 0.190365,0.0119 0.283187,0.0295 0.09282,0.0176 0.183999,0.0432 0.273367,0.077 0.08937,0.0338 0.177091,0.0758 0.262517,0.12661 0.08543,0.0508 0.168606,0.11022 0.249597,0.1788 0.08099,0.0686 0.159581,0.14644 0.235646,0.23358 0.07606,0.0871 0.149498,0.18342 0.220142,0.2899 0.0897,0.1352 0.184499,0.26769 0.28422,0.39688 0.09972,0.12918 0.20428,0.25502 0.313674,0.37827 0.109395,0.12325 0.223893,0.24381 0.342617,0.36121 0.118721,0.11741 0.241784,0.23201 0.369486,0.34365 0.127701,0.11165 0.260024,0.22011 0.396359,0.32608 0.136334,0.10597 0.276539,0.20916 0.421161,0.30954 0.144621,0.10039 0.293407,0.19813 0.445968,0.29301 0.152562,0.0949 0.309068,0.187 0.469223,0.27647 0.160155,0.0895 0.32404,0.17631 0.491442,0.26045 0.167402,0.0841 0.338328,0.16553 0.51263,0.24443 0.174303,0.0789 0.351928,0.15519 0.532784,0.22892 0.180856,0.0737 0.364842,0.14476 0.551905,0.21343 0.187063,0.0687 0.377068,0.13476 0.569992,0.19844 0.192923,0.0637 0.389122,0.12518 0.58756,0.18396 0.198437,0.0588 0.39946,0.11502 0.603065,0.16898 0.203604,0.054 0.409622,0.10579 0.618048,0.15503 0.208425,0.0492 0.419105,0.096 0.632005,0.14056 0.212897,0.0446 0.427894,0.0871 0.644922,0.12713 0.217024,0.04 0.435999,0.0776 0.656807,0.11317 0.220805,0.0356 0.443417,0.0691 0.667657,0.10025 0.224242,0.0312 0.450152,0.0599 0.677479,0.0868 0.22733,0.0269 0.456194,0.0517 0.686263,0.0744 0.460139,0.0454 0.925208,0.0826 1.39423,0.11162 0.469024,0.0291 0.941834,0.0502 1.416968,0.0636 0.475133,0.0134 0.952965,0.0191 1.431438,0.0176 0.478472,-0.002 0.957567,-0.0106 1.436605,-0.0264 0.479036,-0.0158 0.957707,-0.0383 1.434537,-0.0677 0.476829,-0.0294 0.951842,-0.0657 1.423693,-0.108 0.47185,-0.0423 0.94047,-0.0908 1.40456,-0.14521 0.4641,-0.0545 0.92361,-0.11439 1.37718,-0.18035 0.45357,-0.066 0.90125,-0.13768 1.34152,-0.21446 0.44027,-0.0768 0.8734,-0.15907 1.2976,-0.24598 0.42419,-0.0869 0.83953,-0.17857 1.24488,-0.27492 0.40535,-0.0964 0.80069,-0.1972 1.18442,-0.30231 0.38374,-0.1051 0.75584,-0.21446 1.11518,-0.32762 0.35934,-0.11317 0.70601,-0.23034 1.03818,-0.35089 0.33218,-0.12054 0.65016,-0.24432 0.9524,-0.37155 0.15112,-0.0636 0.2982,-0.12811 0.44132,-0.19327 0.14311,-0.0652 0.28226,-0.13079 0.41702,-0.1974 0.13477,-0.0666 0.26513,-0.13407 0.3912,-0.20206 0.12606,-0.068 0.24781,-0.13692 0.36483,-0.20619 0.11702,-0.0693 0.2293,-0.13882 0.33693,-0.20929 0.10763,-0.0705 0.21062,-0.14184 0.30851,-0.21342 0.0979,-0.0716 0.19072,-0.1434 0.27853,-0.21601 0.0878,-0.0726 0.17016,-0.14607 0.24754,-0.21962 0.0774,-0.0736 0.14992,-0.14729 0.21652,-0.22169 0.0666,-0.0744 0.12745,-0.14911 0.18294,-0.22428 0.0555,-0.0752 0.10533,-0.15101 0.14934,-0.22686 0.044,-0.0759 0.082,-0.15196 0.1142,-0.22841 0.0495,-0.11762 0.10319,-0.2245 0.16072,-0.32143 0.0575,-0.0969 0.11906,-0.18389 0.18396,-0.26096 0.0325,-0.0385 0.0661,-0.0748 0.10026,-0.10852 0.0342,-0.0337 0.0691,-0.065 0.1049,-0.0941 0.0358,-0.029 0.0721,-0.0557 0.10956,-0.0801 0.0374,-0.0244 0.0758,-0.0467 0.11472,-0.0667 0.0778,-0.0399 0.15849,-0.0705 0.24184,-0.093 0.0834,-0.0225 0.16959,-0.0368 0.25787,-0.0429 z" />
      <path
         id="path409"
         style="opacity:0.417692;fill:#ffffff;stroke:none;stroke-width:0.208661"
         d="m 124.03073,153.48651 v 5.0369 a 16.288157,15.8544 0 0 1 0.0512,5.2e-4 16.288157,15.8544 0 0 1 0.41238,0.0155 16.288157,15.8544 0 0 1 0.41186,0.0253 16.288157,15.8544 0 0 1 0.41083,0.0351 16.288157,15.8544 0 0 1 0.40979,0.046 16.288157,15.8544 0 0 1 0.40928,0.0558 16.288157,15.8544 0 0 1 0.40669,0.0656 16.288157,15.8544 0 0 1 0.40514,0.076 16.288157,15.8544 0 0 1 0.40308,0.0858 16.288157,15.8544 0 0 1 0.40101,0.0956 16.288157,15.8544 0 0 1 0.39791,0.10594 16.288157,15.8544 0 0 1 0.39532,0.11524 16.288157,15.8544 0 0 1 0.39223,0.12505 16.288157,15.8544 0 0 1 0.3886,0.13488 16.288157,15.8544 0 0 1 0.38499,0.14417 16.288157,15.8544 0 0 1 0.38137,0.15348 16.288157,15.8544 0 0 1 0.37776,0.1633 16.288157,15.8544 0 0 1 0.37207,0.17208 16.288157,15.8544 0 0 1 0.36845,0.18191 16.288157,15.8544 0 0 1 0.36329,0.19017 16.288157,15.8544 0 0 1 0.35812,0.19946 16.288157,15.8544 0 0 1 0.35294,0.20826 16.288157,15.8544 0 0 1 0.34727,0.21653 16.288157,15.8544 0 0 1 0.3421,0.2253 16.288157,15.8544 0 0 1 0.33538,0.23358 16.288157,15.8544 0 0 1 0.32969,0.24185 16.288157,15.8544 0 0 1 0.32298,0.25011 16.288157,15.8544 0 0 1 0.31678,0.25787 16.288157,15.8544 0 0 1 0.30954,0.2651 16.288157,15.8544 0 0 1 0.30283,0.27285 16.288157,15.8544 0 0 1 0.29558,0.2806 16.288157,15.8544 0 0 1 0.28784,0.28784 16.288157,15.8544 0 0 1 0.2806,0.29455 16.288157,15.8544 0 0 1 0.27234,0.30128 16.288157,15.8544 0 0 1 0.2651,0.30799 16.288157,15.8544 0 0 1 0.25683,0.31471 16.288157,15.8544 0 0 1 0.24805,0.32039 16.288157,15.8544 0 0 1 0.23978,0.3266 16.288157,15.8544 0 0 1 0.23202,0.3328 16.288157,15.8544 0 0 1 0.22221,0.33796 16.288157,15.8544 0 0 1 0.21394,0.34365 16.288157,15.8544 0 0 1 0.20516,0.34881 16.288157,15.8544 0 0 1 0.19534,0.35399 16.288157,15.8544 0 0 1 0.18655,0.35811 16.288157,15.8544 0 0 1 0.17673,0.36277 16.288157,15.8544 0 0 1 0.16743,0.36742 16.288157,15.8544 0 0 1 0.15813,0.37104 16.288157,15.8544 0 0 1 0.14831,0.37465 16.288157,15.8544 0 0 1 0.1385,0.37828 16.288157,15.8544 0 0 1 0.12815,0.38188 16.288157,15.8544 0 0 1 0.11886,0.38499 16.288157,15.8544 0 0 1 0.10852,0.38706 16.288157,15.8544 0 0 1 0.0982,0.39016 16.288157,15.8544 0 0 1 0.0878,0.39222 16.288157,15.8544 0 0 1 0.0786,0.39481 16.288157,15.8544 0 0 1 0.0677,0.39584 16.288157,15.8544 0 0 1 0.0568,0.39791 16.288157,15.8544 0 0 1 0.047,0.39946 16.288157,15.8544 0 0 1 0.0362,0.39997 16.288157,15.8544 0 0 1 0.0264,0.40101 16.288157,15.8544 0 0 1 0.0155,0.40101 16.288157,15.8544 0 0 1 0.006,0.40153 16.288157,15.8544 0 0 1 -0.0455,1.18494 16.288157,15.8544 0 0 1 -0.13643,1.17823 16.288157,15.8544 0 0 1 -0.22634,1.16478 16.288157,15.8544 0 0 1 -0.31523,1.14515 16.288157,15.8544 0 0 1 -0.40256,1.11931 16.288157,15.8544 0 0 1 -0.48731,1.08675 16.288157,15.8544 0 0 1 -0.56895,1.04799 16.288157,15.8544 0 0 1 -0.64803,1.00409 16.288157,15.8544 0 0 1 -0.72347,0.95394 16.288157,15.8544 0 0 1 -0.79426,0.89866 16.288157,15.8544 0 0 1 -0.86145,0.83819 16.288157,15.8544 0 0 1 -0.92346,0.7736 16.288157,15.8544 0 0 1 -0.97978,0.70383 16.288157,15.8544 0 0 1 -1.03146,0.63097 16.288157,15.8544 0 0 1 -1.07643,0.55397 16.288157,15.8544 0 0 1 -1.11672,0.47439 16.288157,15.8544 0 0 1 -1.1498,0.39119 16.288157,15.8544 0 0 1 -1.17668,0.30747 16.288157,15.8544 0 0 1 -1.19682,0.21963 16.288157,15.8544 0 0 1 -1.21026,0.13281 16.288157,15.8544 0 0 1 -0.85628,0.0315 v 5.04568 a 21.471702,20.899905 0 0 0 21.11051,-20.88654 21.471702,20.899905 0 0 0 -21.11034,-20.8871 z" />
      <rect
         style="opacity:0.417692;fill:#ffffff;stroke:none;stroke-width:1.685;stroke-miterlimit:4;stroke-dasharray:none;stroke-opacity:1"
         id="rect4602"
         width="7.0155344"
         height="36.342194"
         x="82.023224"
         y="162.11833"
         ry="3.5077672" />
    </g>
  </g>
</svg>
